<?xml version="1.0" standalone="no"?>
<!DOCTYPE svg PUBLIC "-//W3C//DTD SVG 1.1//EN" "http://www.w3.org/Graphics/SVG/1.1/DTD/svg11.dtd" >
<svg xmlns="http://www.w3.org/2000/svg">
<metadata>
This is a custom SVG webfont generated by Font Squirrel.
Copyright   : FTF Morgan Avec Copyright c Feliciano Type Foundry 20002007 All rights reserved
Designer    : Mario Feliciano
Foundry     : FTF
Foundry URL : httpwwwfelicianotypefoundrycom
</metadata>
<defs>
<font id="MorganAvecRegular" horiz-adv-x="1171" >
<font-face units-per-em="2048" ascent="1638" descent="-410" />
<missing-glyph horiz-adv-x="491" />
<glyph unicode=" "  horiz-adv-x="491" />
<glyph unicode="&#x09;" horiz-adv-x="491" />
<glyph unicode="&#xa0;" horiz-adv-x="491" />
<glyph unicode="!" horiz-adv-x="692" d="M246 0v207h200v-207h-200zM254 1417h184l-18 -1044h-148z" />
<glyph unicode="&#x22;" horiz-adv-x="839" d="M121 1049l51 245l-18 205h198v-86l-133 -364h-98zM487 1049l52 245l-19 205h199v-86l-133 -364h-99z" />
<glyph unicode="#" d="M14 289l35 137h201l129 563h-219l35 137h208l70 291h133l-67 -291h284l68 291h133l-72 -291h203l-27 -137h-202l-129 -563h213l-29 -137h-213l-72 -289h-131l70 289h-285l-69 -289h-131l73 289h-209zM381 426h287l127 563h-289z" />
<glyph unicode="$" d="M131 926v123q0 309 340 309h39v201h145v-201h97q170 0 233 -53v-275h-160v189h-368q-162 0 -162 -154v-115q0 -47 32.5 -76.5t63.5 -39t94 -21.5l236 -47q158 -20 232.5 -88t74.5 -199v-147q0 -283 -291 -283h-82v-215h-145v215h-125q-170 0 -233 53v275h159v-189h408 q143 0 143 136v112q0 82 -39 117t-139 53l-248 49q-160 23 -232.5 83.5t-72.5 187.5z" />
<glyph unicode="%" horiz-adv-x="1669" d="M123 956v213q0 262 258 263h74q260 0 260 -263v-213q0 -250 -260 -249h-74q-258 -1 -258 249zM270 956q0 -66 20.5 -95.5t82.5 -29.5h90q111 0 110 134v215q0 66 -23.5 95.5t-86.5 29.5h-90q-63 0 -83 -27t-20 -94v-228zM371 8l837 1460l105 -47l-840 -1464zM954 225v213 q0 262 258 262h74q260 0 260 -262v-213q0 -250 -260 -250h-74q-258 0 -258 250zM1102 225q0 -66 20.5 -95.5t81.5 -29.5h90q111 0 111 133v216q0 66 -23.5 95t-87.5 29h-90q-63 0 -82.5 -26.5t-19.5 -93.5v-228z" />
<glyph unicode="&#x26;" horiz-adv-x="1613" d="M174 307v109q0 324 268 381q-133 133 -133 276v64q0 137 95.5 221t254.5 84h115q160 0 248 -79t88 -214v-115h-154v103q0 174 -190 174h-125q-66 0 -119 -40t-53 -116v-80q0 -100 98 -194l570 -543q18 80 18 164v321h350v-114l-217 -4v-211q0 -141 -47 -256l119 -115h174 v-123h-254l-113 111q-109 -135 -286 -136h-334q-160 0 -266.5 82t-106.5 250zM340 332q0 -225 225 -226h322q121 0 188 93l-534 506q-102 -20 -151.5 -78t-49.5 -187v-108z" />
<glyph unicode="'" horiz-adv-x="473" d="M121 1049l51 245l-18 205h198v-86l-133 -364h-98z" />
<glyph unicode="(" horiz-adv-x="733" d="M205 383v369q0 815 395 815h88v-125h-88q-68 0 -116 -56.5t-73.5 -152.5t-37 -199.5t-11.5 -218.5v-471q0 -117 11.5 -222.5t36 -206.5t73.5 -161.5t117 -60.5h88v-127h-88q-395 0 -395 817z" />
<glyph unicode=")" horiz-adv-x="733" d="M45 -307h88q68 0 117 60.5t73.5 161.5t36 206.5t11.5 222.5v471q0 115 -11.5 218.5t-37 199.5t-73.5 152.5t-116 56.5h-88v125h88q395 0 395 -815v-369q0 -817 -395 -817h-88v127z" />
<glyph unicode="*" horiz-adv-x="884" d="M86 1266l61 106l236 -133v260h121v-260l235 133l60 -106l-244 -140l160 -239l-101 -70l-172 256l-172 -256l-102 70l160 239z" />
<glyph unicode="+" d="M90 532v134h430v428h133v-428h428v-134h-428v-430h-133v430h-430z" />
<glyph unicode="," horiz-adv-x="503" d="M121 -244l51 246l-18 205h198v-86l-133 -365h-98z" />
<glyph unicode="-" horiz-adv-x="720" d="M70 516v154h581v-154h-581z" />
<glyph unicode="." horiz-adv-x="503" d="M152 0v207h200v-207h-200z" />
<glyph unicode="/" horiz-adv-x="815" d="M106 -430l478 1962h133l-473 -1962h-138z" />
<glyph unicode="0" d="M123 319v754q0 176 104.5 260t284.5 84h143q180 0 287 -85t107 -259v-754q0 -174 -106.5 -259t-287.5 -85h-143q-180 0 -284.5 84t-104.5 260zM289 303q0 -98 62.5 -145t164.5 -47h137q106 0 169 51t63 153v758q0 104 -62.5 156.5t-169.5 52.5h-137q-227 0 -227 -209 v-770z" />
<glyph unicode="1" d="M213 0v135h344v1125h-319v126l452 39h35v-1290h311v-135h-823z" />
<glyph unicode="2" d="M150 0v444q0 242 299 285l264 31q170 25 170 153v215q0 152 -221 152h-345v-184h-153v284q111 37 252 37h248q166 0 270 -70.5t104 -207.5v-228q0 -246 -276 -286l-268 -31q-49 -8 -77 -14.5t-57.5 -22.5t-42 -46t-12.5 -75v-297h586v174h160v-313h-901z" />
<glyph unicode="3" d="M113 27v98h528q113 0 175.5 46t62.5 161v135q0 106 -56.5 145t-173.5 39h-248v146h277q96 0 136 45t40 162v77q0 123 -68.5 161t-197.5 38h-303v-180h-154v270q82 47 270 47h240q172 0 269.5 -77.5t97.5 -237.5v-86q0 -127 -41 -187.5t-140 -91.5v-8q111 -16 163 -93 t52 -177v-121q0 -184 -93 -271t-249 -87h-354q-151 0 -233 47z" />
<glyph unicode="4" d="M70 410v125l596 886h206v-876h240v-135h-240v-410h-155v410h-647zM221 545h496v727h-10l-62 -109z" />
<glyph unicode="5" d="M147 29v98h517q68 0 113.5 17.5t65 49t27 60.5t7.5 68v176q0 94 -56.5 138t-134.5 44h-496v713h785v-152h-635v-422h373q143 0 234 -83t91 -212v-180q0 -162 -94 -263t-256 -101h-305q-177 0 -236 49z" />
<glyph unicode="6" d="M125 319v748q0 188 91 269t284 81h286q121 0 203 -47v-92h-491q-123 0 -166 -36t-43 -146v-289q86 90 272 90h168q135 0 226.5 -78t91.5 -233v-271q0 -340 -347 -340h-219q-170 0 -263 78t-93 266zM289 289q0 -96 42 -137t126 -41h248q98 0 138 41t40 147v309 q0 66 -46 108t-122 42h-191q-131 0 -235 -31v-438z" />
<glyph unicode="7" d="M135 1055v338h969v-136l-692 -1257h-170l696 1247h-649v-192h-154z" />
<glyph unicode="8" d="M117 287v149q0 96 66.5 176t170.5 95v8q-111 27 -166 93.5t-55 188.5v80q0 164 94.5 252t257.5 88h189q168 0 266 -84t98 -243v-93q0 -123 -55 -187.5t-176 -94.5v-8q111 -16 179.5 -96.5t68.5 -174.5v-149q0 -113 -57.5 -185.5t-139.5 -99.5t-186 -27h-183 q-164 0 -268 73t-104 239zM283 317q0 -113 57 -159.5t168 -46.5h154q111 0 169 46t58 160v121q0 201 -230 201h-161q-90 0 -152.5 -48t-62.5 -153v-121zM293 958q0 -86 58.5 -132t152.5 -46h147q227 0 228 178v127q0 197 -191 197h-213q-182 0 -182 -197v-127z" />
<glyph unicode="9" d="M125 807v270q0 340 346 340h219q170 0 263.5 -77.5t93.5 -266.5v-743q0 -188 -91.5 -269t-283.5 -81h-295q-121 0 -203 47v92h500q123 0 166 35.5t43 146.5v285q-86 -90 -273 -90h-168q-135 0 -226 77.5t-91 233.5zM289 784q0 -66 46 -107.5t122 -41.5h190q131 0 236 31 v438q0 96 -42 137t-126 41h-248q-98 0 -138 -41t-40 -147v-310z" />
<glyph unicode=":" horiz-adv-x="503" d="M152 0v207h200v-207h-200zM152 690v207h200v-207h-200z" />
<glyph unicode=";" horiz-adv-x="503" d="M121 -244l51 246l-18 205h198v-86l-133 -365h-98zM152 690v207h200v-207h-200z" />
<glyph unicode="&#x3c;" d="M154 563v88l792 441l70 -119l-649 -365l649 -364l-68 -119z" />
<glyph unicode="=" d="M86 352v133h999v-133h-999zM86 715v133h999v-133h-999z" />
<glyph unicode="&#x3e;" d="M154 244l649 364l-649 365l69 119l793 -441v-88l-795 -438z" />
<glyph unicode="?" horiz-adv-x="1116" d="M176 1061v348q111 37 252 37h221q164 0 261.5 -69.5t97.5 -209.5v-127q0 -135 -41 -204.5t-166 -96.5l-154 -34q-33 -6 -47 -12.5t-28.5 -30t-14.5 -66.5v-225h-156v241q0 100 43 154.5t183 85.5l106 25q70 16 94.5 40.5t24.5 102.5v129q0 152 -205 151h-319v-239h-152z M383 0v207h201v-207h-201z" />
<glyph unicode="@" horiz-adv-x="2060" d="M135 420q0 561 237.5 800.5t757.5 239.5q367 0 581 -163.5t214 -510.5q0 -379 -157.5 -582.5t-479.5 -203.5h-430q-270 0 -270 205q0 29 2 41l59 547q16 121 85 196.5t194 75.5h502l-101 -930h10q129 0 221 50q95 52 145 147.5t71.5 202t21.5 235.5q0 301 -183 440.5 t-499 139.5q-455 0 -653.5 -225.5t-198.5 -710.5q0 -391 182.5 -543t587.5 -152q211 0 486 48l-7 -101q-240 -61 -552 -61q-430 0 -628 192.5t-198 622.5zM750 229q0 -41 26.5 -64.5t67.5 -23.5h332l77 785h-299q-76 0 -103.5 -24.5t-33.5 -76.5l-65 -571q0 -4 -1 -12.5 t-1 -12.5z" />
<glyph unicode="A" horiz-adv-x="1419" d="M25 0v115l118 2l445 1313h227l463 -1313l117 -2v-115h-447v115h152l-127 358h-557l-115 -358h162v-115h-438zM459 610h467l-224 664l-10 45h-6l-10 -45z" />
<glyph unicode="B" horiz-adv-x="1396" d="M90 0v115l168 4v1179l-168 5v114h854q152 0 230.5 -84t78.5 -192v-107q0 -133 -45 -202.5t-153 -96.5v-14q109 -16 164 -83t55 -165v-149q0 -324 -356 -324h-828zM430 793h467q98 0 147.5 48t49.5 163v90q0 96 -47.5 143t-155.5 47h-461v-491zM430 133h479 q106 0 151.5 45t45.5 162v115q0 109 -50 154.5t-159 45.5h-467v-522z" />
<glyph unicode="C" horiz-adv-x="1339" d="M143 459v495q0 242 111 364t350 122h359q166 0 233 -54v-335h-160v249h-448q-160 0 -215.5 -91t-55.5 -263v-479q0 -170 60.5 -262t222.5 -92h436v249h160v-335q-68 -53 -233 -54h-367q-236 0 -344.5 122t-108.5 364z" />
<glyph unicode="D" horiz-adv-x="1449" d="M90 0v115l168 4v1179l-168 5v114h756q461 0 461 -444v-516q0 -242 -117 -349.5t-348 -107.5h-752zM430 133h399q166 0 236 77t70 253v491q0 172 -74 251t-234 79h-397v-1151z" />
<glyph unicode="E" horiz-adv-x="1355" d="M90 0v115l168 4v1179l-168 5v114h1120v-364h-159v229h-621v-473h381v137h152v-424h-152v152h-381v-539h633v230h160v-365h-1133z" />
<glyph unicode="F" horiz-adv-x="1296" d="M90 0v115l168 4v1179l-168 5v114h1120v-364h-159v229h-621v-473h383v137h150v-424h-150v150h-383v-553l211 -4v-115h-551z" />
<glyph unicode="G" horiz-adv-x="1488" d="M143 422v563q0 221 116 339t319 118h448q170 0 234 -53v-336h-160v247h-522q-127 0 -194 -82.5t-67 -218.5v-577q0 -141 67 -224t194 -83h215q186 0 309 41v456h-412v136h707v-136h-123v-612h-131l-25 74q-129 -98 -356 -99h-168q-217 0 -334 113t-117 334z" />
<glyph unicode="H" horiz-adv-x="1658" d="M90 0v115l168 4v1179l-168 5v114h508v-114l-168 -5v-487h799v487l-168 5v114h508v-114l-168 -5v-1179l168 -4v-115h-508v115l168 4v555h-799v-555l168 -4v-115h-508z" />
<glyph unicode="I" horiz-adv-x="688" d="M90 0v115l168 4v1179l-168 5v114h508v-114l-168 -5v-1179l168 -4v-115h-508z" />
<glyph unicode="J" horiz-adv-x="1333" d="M119 356v189h166v-189q0 -125 64.5 -182t197.5 -57h162q238 0 237 282v899l-213 5v114h531v-114l-144 -5v-907q0 -416 -418 -416h-161q-217 0 -319.5 86t-102.5 295z" />
<glyph unicode="K" horiz-adv-x="1441" d="M90 0v115l168 4v1179l-168 5v114h508v-114l-168 -5v-602l610 607h-161v114h503v-114l-159 -5l-475 -477l507 -698l187 -8v-115h-324l-59 111l-436 606l-193 -178v-420l168 -4v-115h-508z" />
<glyph unicode="L" horiz-adv-x="1304" d="M90 0v115l168 4v1179l-168 5v114h508v-114l-168 -5v-1163h635v275h158v-410h-1133z" />
<glyph unicode="M" horiz-adv-x="1826" d="M90 0v115l168 4v1179l-168 5v114h432l383 -893l6 -32h9l6 32l389 893h422v-114l-168 -5v-1179l168 -4v-115h-496v115l168 4v864l12 303h-8l-76 -182l-362 -807h-139l-349 799l-77 190h-9l9 -303v-864l168 -4v-115h-488z" />
<glyph unicode="N" horiz-adv-x="1570" d="M90 0v115l168 4v1177l-168 7v114h352l645 -1011l105 -193h4l-18 289v796l-166 5v114h481v-114l-168 -5v-1298h-156l-698 1094l-84 166l-8 -3l24 -370v-770l168 -2v-115h-481z" />
<glyph unicode="O" horiz-adv-x="1458" d="M143 399v627q0 211 119 313.5t332 102.5h270q213 0 332 -102.5t119 -313.5v-627q0 -211 -119 -317.5t-332 -106.5h-270q-213 0 -332 106.5t-119 317.5zM315 397q0 -131 67 -206.5t196 -75.5h303q129 0 195.5 75.5t66.5 206.5v623q0 131 -66.5 207t-195.5 76h-303 q-129 0 -196 -76t-67 -207v-623z" />
<glyph unicode="P" horiz-adv-x="1359" d="M90 0v115l168 4v1179l-168 5v114h776q186 0 272.5 -74.5t86.5 -224.5v-268q0 -154 -89 -227.5t-282 -73.5h-424v-430l211 -4v-115h-551zM430 684h416q123 0 166 48t43 155v207q0 102 -48.5 145t-177.5 43h-399v-598z" />
<glyph unicode="Q" horiz-adv-x="1458" d="M143 399v627q0 211 119 313.5t332 102.5h270q213 0 332 -102.5t119 -313.5v-627q0 -211 -119 -317.5t-332 -106.5h-51v-63q0 -86 40 -125t126 -39h168v-117q-80 -20 -176 -20q-315 0 -316 274v90h-61q-213 0 -332 106.5t-119 317.5zM315 397q0 -131 67 -206.5t196 -75.5 h303q129 0 195.5 75.5t66.5 206.5v623q0 131 -66.5 207t-195.5 76h-303q-129 0 -196 -76t-67 -207v-623z" />
<glyph unicode="R" horiz-adv-x="1466" d="M90 0v115l168 4v1179l-168 5v114h776q186 0 272.5 -73.5t86.5 -229.5v-203q0 -143 -86 -214.5t-226 -71.5h-86v-4q31 -8 58.5 -32t41 -41.5t42.5 -58.5l264 -368l164 -6v-115h-291l-64 98l-299 443q-47 72 -149 71h-164v-493l168 -4v-115h-508zM430 731h387 q137 0 187.5 36t50.5 148v185q0 109 -55.5 145.5t-194.5 36.5h-375v-551z" />
<glyph unicode="S" horiz-adv-x="1290" d="M143 940v193q0 309 340 309h391q166 0 234 -53v-336h-160v250h-479q-162 0 -162 -156v-182q0 -117 191 -138l358 -47q158 -20 232.5 -86.5t74.5 -199.5v-238q0 -150 -74.5 -215.5t-216.5 -65.5h-487q-166 0 -233 54v336h159v-250h543q143 0 143 135v201q0 84 -38.5 120.5 t-139.5 49.5l-370 49q-160 20 -233 81.5t-73 188.5z" />
<glyph unicode="T" horiz-adv-x="1380" d="M90 983v434h1200v-434h-157v299h-357v-1165l168 -2v-115h-508v115l168 4v1163h-356v-299h-158z" />
<glyph unicode="U" horiz-adv-x="1568" d="M61 1303v114h508v-114l-168 -5v-899q0 -131 67 -206.5t196 -75.5h247q129 0 196 75.5t67 206.5v899l-166 5v114h499v-114l-168 -7v-897q0 -211 -113.5 -317.5t-326.5 -106.5h-229q-207 0 -324 103.5t-117 312.5v907z" />
<glyph unicode="V" horiz-adv-x="1435" d="M25 1303v114h464v-114h-151l356 -1065l25 -105h4l25 105l370 1065h-162v114h455v-114l-133 -3l-475 -1310h-182l-461 1310z" />
<glyph unicode="W" horiz-adv-x="1978" d="M45 1303v114h467v-114h-154l205 -1022l25 -150h8l20 150l289 1118h191l274 -1118l23 -150h10l20 150l215 1022h-157v114h452v-114l-135 -3l-297 -1310h-215l-278 1171l-9 68h-6l-10 -70l-291 -1169h-215l-297 1310z" />
<glyph unicode="X" horiz-adv-x="1454" d="M37 0v115l143 8l430 622l-413 558h-142v114h484v-114h-146l336 -484l318 484h-150v114h459v-114h-137l-396 -572l453 -608l141 -8v-115h-467v115h135l-380 524l-361 -524h145v-115h-452z" />
<glyph unicode="Y" horiz-adv-x="1314" d="M25 1303v114h450v-114h-135l311 -512l15 -29h4l12 26l311 515h-131v114h428v-114l-125 -5l-424 -673v-508l168 -2v-115h-508v115l168 4v506l-417 673z" />
<glyph unicode="Z" horiz-adv-x="1241" d="M96 0v115l834 1167h-672v-240h-143v375h1018v-123l-834 -1159h702v244h144v-379h-1049z" />
<glyph unicode="[" horiz-adv-x="753" d="M246 -434v2001h483v-123h-323v-1755h323v-123h-483z" />
<glyph unicode="\" horiz-adv-x="815" d="M135 1532h133l477 -1962h-137z" />
<glyph unicode="]" horiz-adv-x="753" d="M25 -311h323v1755h-323v123h483v-2001h-483v123z" />
<glyph unicode="^" horiz-adv-x="954" d="M104 428l291 895h166l289 -895h-158l-217 709l-217 -709h-154z" />
<glyph unicode="_" horiz-adv-x="1257" d="M117 -154h1024v-127h-1024v127z" />
<glyph unicode="`" horiz-adv-x="661" d="M135 1509l166 45l225 -352h-135z" />
<glyph unicode="a" horiz-adv-x="1208" d="M119 217v98q0 287 303 287h397v205q0 82 -42 114.5t-128 32.5h-307v-161h-152v249q94 47 252 48h228q313 0 313 -269v-702l139 -4v-115l-264 -10l-22 153h-7q-31 -63 -95 -112t-163 -49h-178q-121 0 -197.5 62t-76.5 173zM283 238q0 -121 145 -121h137q115 0 184.5 56 t69.5 159v147h-385q-76 0 -113.5 -30.5t-37.5 -106.5v-104z" />
<glyph unicode="b" horiz-adv-x="1249" d="M70 1376v115l323 8v-508q100 98 291 99h139q152 0 217.5 -68t65.5 -170v-578q0 -156 -91 -227.5t-218 -71.5h-148q-180 0 -270 101l-17 -76h-133v1376h-159zM393 188q102 -70 266 -69h146q63 0 100 34.5t37 100.5v561q0 68 -34 97.5t-117 29.5h-152q-111 0 -246 -37v-717 z" />
<glyph unicode="c" horiz-adv-x="1056" d="M143 346v381q0 186 95.5 274.5t283.5 88.5h250q123 0 203 -48v-274h-148v182h-348q-86 0 -129 -51t-43 -139v-432q0 -115 45 -164t158 -49h465v-90q-72 -49 -223 -50h-220q-197 0 -293 88t-96 283z" />
<glyph unicode="d" horiz-adv-x="1245" d="M143 221v570q0 143 84 221t222 78h153q74 0 144.5 -26t109.5 -69v381h-160v115l324 8v-1380l139 -6v-113l-272 -14l-17 92q-100 -102 -286 -103h-183q-104 0 -181 57.5t-77 188.5zM307 254q0 -57 26.5 -88t54.5 -37t69 -6h125q139 0 274 37v717q-104 70 -270 69h-154 q-125 0 -125 -151v-541z" />
<glyph unicode="e" horiz-adv-x="1150" d="M143 322v397q0 209 108.5 290t303.5 81h66q84 0 148.5 -15.5t120.5 -51.5t87 -107.5t31 -174.5v-213l-144 -24h-557v-193q0 -102 47 -149t162 -47h461v-78q-68 -61 -215 -62h-250q-160 0 -264.5 83.5t-104.5 263.5zM307 627h541v149q0 102 -51.5 140t-159.5 38h-117 q-115 0 -164 -49t-49 -151v-127z" />
<glyph unicode="f" horiz-adv-x="774" d="M82 930v123h172v198q0 264 348 265q131 0 203 -23v-109h-270q-117 0 -117 -96v-235h272v-123h-272v-811l170 -4v-115h-473v115l139 4v811h-172z" />
<glyph unicode="g" horiz-adv-x="1218" d="M143 287v506q0 145 87 221t233 76h158q63 0 134.5 -33t112.5 -82l6 108h146v-1185q0 -182 -89 -265.5t-272 -83.5h-249q-172 0 -234 50v96h502q96 0 137 47t41 143v240q-100 -100 -285 -100h-145q-283 0 -283 262zM307 305q0 -57 26.5 -88t54.5 -37t69 -6h125 q154 0 274 37v655q-43 29 -131 54.5t-172 25.5h-121q-125 0 -125 -151v-490z" />
<glyph unicode="h" horiz-adv-x="1290" d="M70 1376v115l323 8v-508q104 98 281 99h123q117 0 192.5 -57.5t75.5 -182.5v-731l139 -4v-115h-442v115l139 4v712q0 111 -137 111h-125q-143 0 -246 -31v-792l139 -4v-115h-442v115l139 4v1257h-159z" />
<glyph unicode="i" horiz-adv-x="643" d="M94 946v115l324 4v-946l139 -4v-115h-442v115l139 4v827h-160zM254 1294v205h164v-205h-164z" />
<glyph unicode="j" horiz-adv-x="614" d="M-61 -315h131q113 0 154.5 39.5t41.5 171.5v1050h-160v115l324 4v-1178q0 -182 -85 -260t-247 -78q-82 0 -159 21v115zM266 1294v205h164v-205h-164z" />
<glyph unicode="k" horiz-adv-x="1222" d="M70 1376v115l323 8v-964l441 415h-150v115h481v-115l-159 -12l-332 -303l393 -516l147 -4v-115h-282l-35 74l-342 454l-162 -147v-262l139 -4v-115h-442v115l139 4v1257h-159z" />
<glyph unicode="l" horiz-adv-x="618" d="M70 1376v115l319 8v-1380l143 -4v-115h-442v115l135 4v1257h-155z" />
<glyph unicode="m" horiz-adv-x="1912" d="M94 946v115l316 4l6 -74q104 98 280 99h88q184 0 244 -123q45 59 130 91t179 32h82q117 0 193 -57.5t76 -182.5v-731l139 -4v-115h-443v115l140 4v712q0 111 -138 111h-88q-139 0 -245 -31v-792l139 -4v-115h-442v115l139 4v712q0 111 -137 111h-101q-111 0 -233 -31 v-792l139 -4v-115h-442v115l139 4v827h-160z" />
<glyph unicode="n" horiz-adv-x="1314" d="M94 946v115l316 4l6 -74q100 98 282 99h123q117 0 193 -57.5t76 -182.5v-731l139 -4v-115h-443v115l140 4v712q0 111 -138 111h-124q-158 0 -246 -31v-792l139 -4v-115h-442v115l139 4v827h-160z" />
<glyph unicode="o" horiz-adv-x="1204" d="M143 319v426q0 168 96.5 256.5t266.5 88.5h205q168 0 259 -94.5t91 -262.5v-401q0 -168 -91 -262.5t-259 -94.5h-205q-170 0 -266.5 88t-96.5 256zM307 303q0 -88 40 -142.5t126 -54.5h266q76 0 117 57.5t41 137.5v463q0 80 -41 137t-117 57h-266q-166 0 -166 -194v-461z " />
<glyph unicode="p" horiz-adv-x="1261" d="M82 946v115l315 4l6 -74q104 98 277 99h147q291 0 291 -250v-561q0 -156 -89 -230t-216 -74h-141q-174 0 -266 101v-391l186 -4v-115h-490v115l140 4v1261h-160zM406 188q111 -70 262 -69h143q143 0 143 155v549q0 33 -11 56.5t-26.5 36t-39 18.5t-40 7t-38.5 1h-150 q-47 0 -130 -9t-113 -22v-723z" />
<glyph unicode="q" horiz-adv-x="1204" d="M143 231v547q0 158 84 235t207 77h160q170 0 268 -101l4 94h154v-1398l139 -4v-115h-489v115l186 4v389q-100 -98 -274 -99h-166q-273 0 -273 256zM307 254q0 -57 26.5 -88t54.5 -37t69 -6h125q139 0 274 37v717q-104 70 -270 69h-154q-125 0 -125 -151v-541z" />
<glyph unicode="r" horiz-adv-x="1021" d="M94 946v115l305 4l11 -88q184 92 378 92q61 0 103 -8v-361h-150v234q-133 -2 -323 -64v-751l198 -4v-115h-501v115l139 4v827h-160z" />
<glyph unicode="s" horiz-adv-x="1032" d="M121 700v136q0 106 79 180t218 74h272q115 0 191 -46v-251h-148v161h-311q-86 0 -111.5 -31.5t-25.5 -97.5v-106q0 -37 17 -57.5t36.5 -25.5t56.5 -9l291 -27q121 -12 183.5 -63.5t62.5 -159.5v-129q0 -129 -80 -201t-203 -72h-334q-115 0 -190 45v254h147v-163h353 q63 0 97 22.5t40 47t6 61.5v108q0 59 -26.5 80t-90.5 25l-289 26q-104 8 -172.5 60.5t-68.5 158.5z" />
<glyph unicode="t" horiz-adv-x="856" d="M61 928v123h189v282l164 23v-305h405v-123h-405v-701q0 -35 4 -55t27.5 -41.5t68.5 -21.5h268v-93q-76 -41 -239 -41q-145 0 -219 50.5t-74 175.5v727h-189z" />
<glyph unicode="u" horiz-adv-x="1314" d="M80 954v107l317 12v-840q0 -111 138 -110h124q143 0 246 31v800h-153v107l317 12v-954l145 -4v-115l-282 -14l-14 88q-104 -98 -283 -99h-133q-117 0 -193 57.5t-76 182.5v739h-153z" />
<glyph unicode="v" horiz-adv-x="1212" d="M25 950v115h458v-115h-149l276 -774l13 -49h4l12 49l274 774h-151v115h426v-115l-123 -4l-369 -960h-172l-360 960z" />
<glyph unicode="w" horiz-adv-x="1720" d="M25 950v115h424v-115h-162l184 -704l21 -107h12l22 99l240 804h201l239 -811l21 -92h12l18 94l197 717h-154v115h396v-115l-90 -4l-297 -960h-179l-243 835l-23 97h-6l-22 -99l-256 -833h-189l-274 960z" />
<glyph unicode="x" horiz-adv-x="1220" d="M25 0v115l118 4l379 422l-340 405l-129 4v115h475v-104l-143 -11l252 -303l252 303l-135 11v104h436v-115l-125 -4l-350 -389l364 -438l117 -4v-115h-444v104l127 11l-277 329l-285 -329l138 -11v-104h-430z" />
<glyph unicode="y" horiz-adv-x="1159" d="M16 950v115h463v-115h-162l275 -628l18 -82h6l17 73l213 637h-135v115h424v-115l-127 -4l-420 -1141q-18 -49 -39 -85.5t-57.5 -81t-97 -68t-138.5 -23.5h-131l-19 15v121h164q43 0 75 13t52.5 39.5t29.5 44t19 46.5l89 237l-394 883z" />
<glyph unicode="z" horiz-adv-x="1052" d="M106 0v102l621 828h-471v-174h-147v309h811v-121l-607 -809h484v174h147v-309h-838z" />
<glyph unicode="{" horiz-adv-x="753" d="M154 635l92 127v721q0 74 86 86h397v-125h-326v-711l-77 -92l77 -78v-874h326v-123h-375q-109 0 -108 86v858z" />
<glyph unicode="|" horiz-adv-x="944" d="M403 -442v1941h138v-1941h-138z" />
<glyph unicode="}" horiz-adv-x="753" d="M25 -311h325v874l78 78l-78 92v711h-325v125h397q86 -12 86 -86v-721l92 -127l-92 -125v-858q0 -47 -34 -69q-28 -18 -62 -18q-6 0 -13 1h-374v123z" />
<glyph unicode="~" horiz-adv-x="1224" d="M117 559q51 209 209 209q68 0 297 -28.5t295 -28.5q16 0 28 1t20.5 6t13.5 9t9 11t6 12.5t4 14.5t5 13l106 -22q-18 -100 -64.5 -151.5t-132.5 -51.5q-70 0 -293 29.5t-290 29.5q-45 0 -64.5 -14t-38.5 -53z" />
<glyph unicode="&#xa1;" horiz-adv-x="692" d="M246 895v207h200v-207h-200zM254 -315l18 1044h148l18 -1044h-184z" />
<glyph unicode="&#xa2;" horiz-adv-x="1056" d="M143 401v308q0 362 379 362h27v211h137v-211h86q123 0 203 -47v-250h-148v158h-348q-84 0 -128 -51.5t-44 -139.5v-358q0 -115 45 -164t158 -49h465v-90q-72 -49 -223 -49h-66v-217h-137v217h-17q-197 0 -293 87.5t-96 282.5z" />
<glyph unicode="&#xa3;" horiz-adv-x="1105" d="M119 0v135h180v545h-168v125h168v313q0 145 93 234.5t249 89.5q176 0 322 -31v-252h-140v150h-223q-55 0 -94 -41t-39 -111v-352h336v-125h-336v-545h571l-39 -135h-880z" />
<glyph unicode="&#xa4;" horiz-adv-x="1437" d="M139 1176l99 98l159 -154q133 115 314 115q207 0 338 -107l157 156l99 -98l-158 -158q100 -127 100 -328q0 -172 -114 -315l163 -164l-96 -98l-168 168q-137 -102 -297 -103q-195 0 -325 101l-170 -178l-99 98l168 178q-117 139 -116 332q0 164 110 303zM344 686 q0 -131 114.5 -244.5t252.5 -113.5q186 0 290.5 117.5t104.5 279.5q0 143 -120 258t-243 115q-184 0 -291.5 -123t-107.5 -289z" />
<glyph unicode="&#xa5;" horiz-adv-x="1366" d="M45 1303v114h455v-114h-135l309 -517l16 -32h4l15 32l309 517h-131v114h434v-114l-131 -5l-420 -665h401v-121h-405v-395l168 -2v-115h-508v115l168 4v393h-393v121h387l-412 665z" />
<glyph unicode="&#xa6;" horiz-adv-x="944" d="M412 -283v797h120v-797h-120zM412 702v797h120v-797h-120z" />
<glyph unicode="&#xa7;" horiz-adv-x="1341" d="M201 365v770q0 123 86 199.5t207 76.5h571l22 -31v-118h-561q-78 0 -124 -36t-46 -108v-217h521q119 0 191.5 -74.5t72.5 -195.5v-760q0 -127 -79 -211t-204 -84h-579l-25 27v123h582q152 0 151 149v223h-506q-127 0 -203.5 70t-76.5 197zM356 379q0 -131 152 -131h479 v375q0 72 -41 100.5t-123 28.5h-467v-373z" />
<glyph unicode="&#xa8;" horiz-adv-x="835" d="M139 1235v225h176v-225h-176zM518 1235v225h178v-225h-178z" />
<glyph unicode="&#xa9;" horiz-adv-x="1871" d="M119 756q0 104 23.5 207.5t78.5 204t134 176t200 121.5t268 46h244q152 0 272.5 -46t196.5 -118.5t126 -173t70.5 -202t20.5 -209.5q0 -123 -17.5 -232.5t-64.5 -222t-122.5 -193.5t-203.5 -132.5t-294 -51.5h-238q-178 0 -308 51.5t-203 129t-116 193.5t-55 219.5 t-12 232.5zM246 727q0 -113 9 -200t43 -185t91 -161.5t160.5 -106.5t245.5 -43h256q571 0 571 698q0 102 -14.5 192.5t-54.5 182.5t-102 158.5t-165.5 108.5t-238.5 42h-232q-137 0 -241.5 -46t-165 -115.5t-98.5 -166t-51 -182.5t-13 -176zM463 602v229q0 426 426 426h184 q158 0 215 -47v-290h-147v215h-267q-147 0 -198 -80t-51 -232v-215q0 -150 56 -230.5t204 -80.5h256v201h147v-277q-59 -47 -215 -47h-192q-219 0 -318.5 107.5t-99.5 320.5z" />
<glyph unicode="&#xaa;" horiz-adv-x="821" d="M109 885v69q0 180 192 181h225v102q0 47 -23.5 65.5t-74.5 18.5h-162v-98h-121v172q55 33 168 32h142q199 0 198 -165v-402h90v-100l-170 -15l-8 64h-4q-41 -78 -153 -78h-123q-76 0 -126 42t-50 112zM143 494v112h572v-112h-572zM236 907q0 -72 83 -71h107 q100 0 100 100v106h-202q-45 0 -66.5 -17t-21.5 -62v-56z" />
<glyph unicode="&#xab;" horiz-adv-x="1165" d="M90 506v106l412 342l80 -88l-308 -299l310 -340l-82 -82zM582 506v106l413 342l80 -88l-313 -299l313 -340l-80 -82z" />
<glyph unicode="&#xac;" horiz-adv-x="1497" d="M129 535v135h1206v-613h-157v478h-1049z" />
<glyph unicode="&#xad;" horiz-adv-x="720" d="M70 516v154h581v-154h-581z" />
<glyph unicode="&#xae;" horiz-adv-x="1871" d="M119 756q0 104 23.5 207.5t78.5 204t134 176t200 121.5t268 46h244q152 0 272.5 -46t196.5 -118.5t126 -173t70.5 -202t20.5 -209.5q0 -123 -17.5 -232.5t-64.5 -222t-122.5 -193.5t-203.5 -132.5t-294 -51.5h-238q-178 0 -308 51.5t-203 129t-116 193.5t-55 219.5 t-12 232.5zM246 727q0 -113 9 -200t43 -185t91 -161.5t160.5 -106.5t245.5 -43h256q571 0 571 698q0 102 -14.5 192.5t-54.5 182.5t-102 158.5t-165.5 108.5t-238.5 42h-232q-137 0 -241.5 -46t-165 -115.5t-98.5 -166t-51 -182.5t-13 -176zM457 340l127 4v766l-127 4v107 h585q268 0 269 -224v-149q0 -184 -244 -195h-49v-8q41 -23 98 -84l191 -213l143 -8v-104h-242l-280 339q-53 59 -107 60h-86v-291l127 -4v-104h-405v104zM735 748h248q96 0 136 20t40 84v119q0 72 -32.5 99.5t-120.5 27.5h-271v-350z" />
<glyph unicode="&#xaf;" horiz-adv-x="831" d="M98 1296v129h635v-129h-635z" />
<glyph unicode="&#xb0;" horiz-adv-x="720" d="M117 1264q0 100 68.5 173.5t172.5 73.5q117 0 181.5 -66.5t64.5 -166.5q0 -102 -71.5 -171t-174.5 -69q-109 0 -175 68t-66 158zM227 1274q0 -57 37 -99t94.5 -42t97.5 42t40 99t-35 100t-103 43q-61 0 -96 -41t-35 -102z" />
<glyph unicode="&#xb1;" d="M86 0v133h999v-133h-999zM90 666v131h430v420h133v-420h428v-131h-428v-392h-133v392h-430z" />
<glyph unicode="&#xb2;" horiz-adv-x="794" d="M119 676v260q0 170 198 197l138 18q96 10 96 84v82q0 76 -102 76h-213v-131h-113v221q78 20 176 20h127q111 0 182.5 -48t71.5 -144v-76q0 -168 -203 -195l-119 -16q-59 -8 -86.5 -28.5t-27.5 -65.5v-144h321v113h113v-223h-559z" />
<glyph unicode="&#xb3;" horiz-adv-x="794" d="M119 1272v196q63 35 186 35h98q250 0 250 -198v-54q0 -115 -110 -143v-4q72 -14 106.5 -62.5t34.5 -111.5v-45q0 -223 -252 -223h-149q-104 0 -164 36v74h295q72 0 104.5 20.5t32.5 84.5v63q0 61 -32 85t-101 24h-142v102h160q47 0 67.5 23.5t20.5 76.5v60q0 39 -20.5 57 t-41 21.5t-61.5 3.5h-170v-121h-112z" />
<glyph unicode="&#xb4;" horiz-adv-x="661" d="M135 1202l223 352l168 -45l-254 -307h-137z" />
<glyph unicode="&#xb5;" horiz-adv-x="1245" d="M82 954v107l315 12v-817q39 -133 197 -133h96q94 0 154.5 31.5t60.5 101.5v698h-153v107l317 12v-848l39 -225h-158l-10 80q-111 -104 -272 -105h-76q-57 0 -115.5 26t-91.5 81l12 -518h-164v1390h-151z" />
<glyph unicode="&#x3bc;" horiz-adv-x="1245" d="M82 954v107l315 12v-817q39 -133 197 -133h96q94 0 154.5 31.5t60.5 101.5v698h-153v107l317 12v-848l39 -225h-158l-10 80q-111 -104 -272 -105h-76q-57 0 -115.5 26t-91.5 81l12 -518h-164v1390h-151z" />
<glyph unicode="&#xb6;" horiz-adv-x="1206" d="M170 578v571q0 143 88 205.5t264 62.5h508l6 -8v-1831h-147v1673h-193v-956h-278q-137 0 -192.5 74t-55.5 209z" />
<glyph unicode="&#xb7;" horiz-adv-x="503" d="M152 621v206h200v-206h-200z" />
<glyph unicode="&#xb8;" horiz-adv-x="735" d="M137 -270h170q47 0 82 23.5t35 64.5q0 104 -127 198h102q68 -25 117 -86t49 -131q0 -94 -71.5 -144t-167.5 -50q-88 0 -189 28v97z" />
<glyph unicode="&#xb9;" horiz-adv-x="794" d="M139 676v108h221v592h-221v88l348 39h9v-719h198v-108h-555z" />
<glyph unicode="&#xba;" horiz-adv-x="776" d="M109 979v188q0 262 249 263h60q250 0 250 -263v-188q0 -250 -250 -250h-60q-249 0 -249 250zM123 481v119h553v-119h-553zM240 979q0 -70 23.5 -103.5t86.5 -33.5h76q63 0 87 36.5t24 108.5v191q0 72 -22.5 103.5t-88.5 31.5h-76q-66 0 -88 -31t-22 -100v-203z" />
<glyph unicode="&#xbb;" horiz-adv-x="1165" d="M90 227l313 340l-313 299l80 88l414 -342v-106l-414 -361zM582 227l309 340l-307 299l80 88l411 -342v-106l-411 -361z" />
<glyph unicode="&#xbc;" horiz-adv-x="1931" d="M143 621v108h222v592h-222v88l349 39h8v-719h198v-108h-555zM530 -6l859 1505l106 -45l-858 -1505zM1155 215v129l377 471h145v-496h142v-104h-142v-215h-118v215h-404zM1255 319h304v369h-9l-39 -59z" />
<glyph unicode="&#xbd;" horiz-adv-x="1931" d="M143 621v108h222v592h-222v88l349 39h8v-719h198v-108h-555zM514 -6l858 1505l107 -45l-858 -1505zM1243 260q0 170 199 197l137 18q96 10 96 84v82q0 76 -102 76h-213v-131h-113v221q76 20 176 20h127q111 0 182.5 -48t71.5 -144v-76q0 -168 -202 -194l-119 -17 q-59 -8 -87 -28.5t-28 -65.5v-143h322v112h112v-223h-559v260z" />
<glyph unicode="&#xbe;" horiz-adv-x="1931" d="M119 1217v196q63 35 186 35h98q250 0 250 -199v-53q0 -115 -110 -143v-4q72 -14 106.5 -62.5t34.5 -112.5v-45q0 -223 -252 -223h-149q-104 0 -164 37v74h295q72 0 104.5 20.5t32.5 83.5v64q0 61 -32 84.5t-101 23.5h-142v103h160q47 0 67.5 23.5t20.5 76.5v59 q0 39 -20.5 57.5t-41 21.5t-61.5 3h-170v-120h-112zM494 -6l858 1505l106 -45l-858 -1505zM1155 215v129l377 471h145v-496h142v-104h-142v-215h-118v215h-404zM1255 305h304v369h-9l-39 -60z" />
<glyph unicode="&#xbf;" horiz-adv-x="1116" d="M193 61q0 135 40.5 205t165.5 96l154 35q31 6 46 12.5t29.5 30t14.5 66.5v225h156v-242q0 -98 -44 -153t-182 -86l-106 -25q-70 -14 -94.5 -39.5t-24.5 -103.5v-129q0 -152 205 -152h319v240h152v-348q-111 -37 -252 -37h-221q-164 0 -261 69.5t-97 208.5v127zM616 895 v207h201v-207h-201z" />
<glyph unicode="&#xc0;" horiz-adv-x="1419" d="M25 0v115l118 2l445 1313h227l463 -1313l117 -2v-115h-447v115h152l-127 358h-557l-115 -358h162v-115h-438zM387 1837l166 45l225 -352h-135zM459 610h467l-224 664l-10 45h-6l-10 -45z" />
<glyph unicode="&#xc1;" horiz-adv-x="1419" d="M25 0v115l118 2l445 1313h227l463 -1313l117 -2v-115h-447v115h152l-127 358h-557l-115 -358h162v-115h-438zM459 610h467l-224 664l-10 45h-6l-10 -45zM637 1530l223 352l168 -45l-254 -307h-137z" />
<glyph unicode="&#xc2;" horiz-adv-x="1419" d="M25 0v115l118 2l445 1313h227l463 -1313l117 -2v-115h-447v115h152l-127 358h-557l-115 -358h162v-115h-438zM420 1530l213 323h145l223 -323h-151l-141 213l-142 -213h-147zM459 610h467l-224 664l-10 45h-6l-10 -45z" />
<glyph unicode="&#xc3;" horiz-adv-x="1419" d="M25 0v115l118 2l445 1313h227l463 -1313l117 -2v-115h-447v115h152l-127 358h-557l-115 -358h162v-115h-438zM356 1573q23 104 66 148t125 44q55 0 157.5 -28.5t157.5 -28.5q31 0 51.5 13.5t27.5 24.5t22 40l81 -17h-2q-33 -193 -180 -192q-53 0 -158.5 28.5t-160.5 28.5 q-47 0 -65.5 -17.5t-37.5 -60.5zM459 610h467l-224 664l-10 45h-6l-10 -45z" />
<glyph unicode="&#xc4;" horiz-adv-x="1419" d="M25 0v115l118 2l445 1313h227l463 -1313l117 -2v-115h-447v115h152l-127 358h-557l-115 -358h162v-115h-438zM418 1563v225h176v-225h-176zM459 610h467l-224 664l-10 45h-6l-10 -45zM797 1563v225h178v-225h-178z" />
<glyph unicode="&#xc5;" horiz-adv-x="1419" d="M25 0v115l118 2l445 1313h227l463 -1313l117 -2v-115h-447v115h152l-127 358h-557l-115 -358h162v-115h-438zM459 610h467l-224 664l-10 45h-6l-10 -45zM496 1712q0 88 59 151.5t147 63.5q98 0 152.5 -57.5t54.5 -143.5q0 -92 -60.5 -151t-146.5 -59q-92 0 -149 58 t-57 138zM594 1722q0 -49 30.5 -83.5t77.5 -34.5q45 0 78 34.5t33 84t-28.5 85t-82.5 35.5q-49 0 -78.5 -35t-29.5 -86z" />
<glyph unicode="&#xc6;" horiz-adv-x="2048" d="M0 0v115l113 6l606 1175l-201 4v117h1397v-303h-160v168h-620v-473h446v137h152v-424h-152v150h-446v-537h632v168h160v-303h-1132v115l168 4v354h-508l-176 -358h157v-115h-436zM526 608h437v674h-95z" />
<glyph unicode="&#xc7;" horiz-adv-x="1339" d="M143 459v495q0 242 111 364t350 122h359q166 0 233 -54v-335h-160v249h-448q-160 0 -215.5 -91t-55.5 -263v-479q0 -170 60.5 -262t222.5 -92h436v249h160v-335q-68 -53 -233 -54h-105q92 -74 92 -174q0 -94 -71.5 -144t-167.5 -50q-88 0 -189 28v97h170q47 0 82 23.5 t35 64.5q0 78 -78 155h-135q-236 0 -344.5 122t-108.5 364z" />
<glyph unicode="&#xc8;" horiz-adv-x="1355" d="M90 0v115l168 4v1179l-168 5v114h1120v-364h-159v229h-621v-473h381v137h152v-424h-152v152h-381v-539h633v230h160v-365h-1133zM424 1837l166 45l225 -352h-135z" />
<glyph unicode="&#xc9;" horiz-adv-x="1355" d="M90 0v115l168 4v1179l-168 5v114h1120v-364h-159v229h-621v-473h381v137h152v-424h-152v152h-381v-539h633v230h160v-365h-1133zM618 1530l224 352l168 -45l-254 -307h-138z" />
<glyph unicode="&#xca;" horiz-adv-x="1355" d="M90 0v115l168 4v1179l-168 5v114h1120v-364h-159v229h-621v-473h381v137h152v-424h-152v152h-381v-539h633v230h160v-365h-1133zM412 1530l213 323h145l223 -323h-151l-142 213l-141 -213h-147z" />
<glyph unicode="&#xcb;" horiz-adv-x="1355" d="M90 0v115l168 4v1179l-168 5v114h1120v-364h-159v229h-621v-473h381v137h152v-424h-152v152h-381v-539h633v230h160v-365h-1133zM432 1563v225h176v-225h-176zM811 1563v225h178v-225h-178z" />
<glyph unicode="&#xcc;" horiz-adv-x="688" d="M35 1837l166 45l225 -352h-135zM90 0v115l168 4v1179l-168 5v114h508v-114l-168 -5v-1179l168 -4v-115h-508z" />
<glyph unicode="&#xcd;" horiz-adv-x="688" d="M90 0v115l168 4v1179l-168 5v114h508v-114l-168 -5v-1179l168 -4v-115h-508zM262 1530l223 352l168 -45l-254 -307h-137z" />
<glyph unicode="&#xce;" horiz-adv-x="688" d="M53 1530l213 323h146l223 -323h-152l-141 213l-141 -213h-148zM90 0v115l168 4v1179l-168 5v114h508v-114l-168 -5v-1179l168 -4v-115h-508z" />
<glyph unicode="&#xcf;" horiz-adv-x="688" d="M66 1563v225h176v-225h-176zM90 0v115l168 4v1179l-168 5v114h508v-114l-168 -5v-1179l168 -4v-115h-508zM444 1563v225h179v-225h-179z" />
<glyph unicode="&#xd0;" horiz-adv-x="1449" d="M88 670v127h170v501l-168 5v114h756q227 0 344 -106.5t117 -337.5v-516q0 -242 -117 -349.5t-348 -107.5h-752v115l168 4v551h-170zM430 133h399q166 0 236 77t70 253v491q0 170 -74 250t-234 80h-397v-487h315v-127h-315v-537z" />
<glyph unicode="&#xd1;" horiz-adv-x="1570" d="M90 0v115l168 4v1177l-168 7v114h352l645 -1011l105 -193h4l-18 289v796l-166 5v114h481v-114l-168 -5v-1298h-156l-698 1094l-84 166l-8 -3l24 -370v-770l168 -2v-115h-481zM455 1573q23 104 65.5 148t124.5 44q55 0 157.5 -28.5t158.5 -28.5q31 0 51 13.5t27.5 24.5 t21.5 40l82 -17h-2q-33 -193 -180 -192q-53 0 -159 28.5t-161 28.5q-47 0 -65.5 -17.5t-36.5 -60.5z" />
<glyph unicode="&#xd2;" horiz-adv-x="1458" d="M143 399v627q0 211 119 313.5t332 102.5h270q213 0 332 -102.5t119 -313.5v-627q0 -211 -119 -317.5t-332 -106.5h-270q-213 0 -332 106.5t-119 317.5zM315 397q0 -131 67 -206.5t196 -75.5h303q129 0 195.5 75.5t66.5 206.5v623q0 131 -66.5 207t-195.5 76h-303 q-129 0 -196 -76t-67 -207v-623zM436 1837l166 45l225 -352h-135z" />
<glyph unicode="&#xd3;" horiz-adv-x="1458" d="M143 399v627q0 211 119 313.5t332 102.5h270q213 0 332 -102.5t119 -313.5v-627q0 -211 -119 -317.5t-332 -106.5h-270q-213 0 -332 106.5t-119 317.5zM315 397q0 -131 67 -206.5t196 -75.5h303q129 0 195.5 75.5t66.5 206.5v623q0 131 -66.5 207t-195.5 76h-303 q-129 0 -196 -76t-67 -207v-623zM659 1530l224 352l168 -45l-254 -307h-138z" />
<glyph unicode="&#xd4;" horiz-adv-x="1458" d="M143 399v627q0 211 119 313.5t332 102.5h270q213 0 332 -102.5t119 -313.5v-627q0 -211 -119 -317.5t-332 -106.5h-270q-213 0 -332 106.5t-119 317.5zM315 397q0 -131 67 -206.5t196 -75.5h303q129 0 195.5 75.5t66.5 206.5v623q0 131 -66.5 207t-195.5 76h-303 q-129 0 -196 -76t-67 -207v-623zM438 1530l213 323h146l223 -323h-152l-141 213l-141 -213h-148z" />
<glyph unicode="&#xd5;" horiz-adv-x="1458" d="M143 399v627q0 211 119 313.5t332 102.5h270q213 0 332 -102.5t119 -313.5v-627q0 -211 -119 -317.5t-332 -106.5h-270q-213 0 -332 106.5t-119 317.5zM315 397q0 -131 67 -206.5t196 -75.5h303q129 0 195.5 75.5t66.5 206.5v623q0 131 -66.5 207t-195.5 76h-303 q-129 0 -196 -76t-67 -207v-623zM375 1573q23 104 65.5 148t124.5 44q53 0 157.5 -28.5t158.5 -28.5q31 0 51 13.5t27.5 24.5t21.5 40l82 -17h-2q-33 -193 -180 -192q-53 0 -159 28.5t-161 28.5q-47 0 -65.5 -17.5t-36.5 -60.5z" />
<glyph unicode="&#xd6;" horiz-adv-x="1458" d="M143 399v627q0 211 119 313.5t332 102.5h270q213 0 332 -102.5t119 -313.5v-627q0 -211 -119 -317.5t-332 -106.5h-270q-213 0 -332 106.5t-119 317.5zM315 397q0 -131 67 -206.5t196 -75.5h303q129 0 195.5 75.5t66.5 206.5v623q0 131 -66.5 207t-195.5 76h-303 q-129 0 -196 -76t-67 -207v-623zM451 1563v225h176v-225h-176zM829 1563v225h179v-225h-179z" />
<glyph unicode="&#xd7;" d="M119 217l364 367l-364 366l100 101l367 -365l366 365l101 -101l-365 -366l365 -367l-101 -100l-366 364l-367 -364z" />
<glyph unicode="&#xd8;" horiz-adv-x="1458" d="M143 399v627q0 211 119 313.5t332 102.5h270q47 0 90 -6l58 161l114 -26l-57 -160q246 -86 246 -385v-627q0 -211 -119 -317.5t-332 -106.5h-295l-65 -188l-121 29l61 176q-301 65 -301 407zM315 397q0 -227 177 -272l415 1175q-8 2 -26 3h-303q-129 0 -196 -76t-67 -207 v-623zM616 115h265q129 0 195.5 75.5t66.5 206.5v623q0 182 -123 250z" />
<glyph unicode="&#xd9;" horiz-adv-x="1568" d="M61 1303v114h508v-114l-168 -5v-899q0 -131 67 -206.5t196 -75.5h247q129 0 196 75.5t67 206.5v899l-166 5v114h499v-114l-168 -7v-897q0 -211 -113.5 -317.5t-326.5 -106.5h-229q-207 0 -324 103.5t-117 312.5v907zM489 1837l166 45l226 -352h-136z" />
<glyph unicode="&#xda;" horiz-adv-x="1568" d="M61 1303v114h508v-114l-168 -5v-899q0 -131 67 -206.5t196 -75.5h247q129 0 196 75.5t67 206.5v899l-166 5v114h499v-114l-168 -7v-897q0 -211 -113.5 -317.5t-326.5 -106.5h-229q-207 0 -324 103.5t-117 312.5v907zM745 1530l224 352l168 -45l-254 -307h-138z" />
<glyph unicode="&#xdb;" horiz-adv-x="1568" d="M61 1303v114h508v-114l-168 -5v-899q0 -131 67 -206.5t196 -75.5h247q129 0 196 75.5t67 206.5v899l-166 5v114h499v-114l-168 -7v-897q0 -211 -113.5 -317.5t-326.5 -106.5h-229q-207 0 -324 103.5t-117 312.5v907zM518 1530l213 323h146l223 -323h-152l-141 213 l-141 -213h-148z" />
<glyph unicode="&#xdc;" horiz-adv-x="1568" d="M61 1303v114h508v-114l-168 -5v-899q0 -131 67 -206.5t196 -75.5h247q129 0 196 75.5t67 206.5v899l-166 5v114h499v-114l-168 -7v-897q0 -211 -113.5 -317.5t-326.5 -106.5h-229q-207 0 -324 103.5t-117 312.5v907zM532 1563v225h177v-225h-177zM911 1563v225h179v-225 h-179z" />
<glyph unicode="&#xdd;" horiz-adv-x="1314" d="M25 1303v114h450v-114h-135l311 -512l15 -29h4l12 26l311 515h-131v114h428v-114l-125 -5l-424 -673v-508l168 -2v-115h-508v115l168 4v506l-417 673zM604 1530l223 352l168 -45l-254 -307h-137z" />
<glyph unicode="&#xde;" horiz-adv-x="1323" d="M90 0v115l168 4v1179l-168 5v114h508v-114l-168 -5v-211h440q317 0 318 -274v-141q0 -135 -90 -218t-256 -83h-412v-252l213 -4v-115h-553zM430 510h426q98 0 130 41t32 139v90q0 94 -38 133t-140 39h-410v-442z" />
<glyph unicode="&#xdf;" horiz-adv-x="1359" d="M82 930v123h172v41q0 188 104.5 307t288.5 119h170q166 0 262.5 -85t96.5 -247v-82q0 -145 -69 -225t-173 -84v-15q158 -6 242 -85t84 -193v-178q0 -160 -87.5 -246t-248.5 -86h-60q-117 0 -194 26v113h223q113 0 160 28.5t45 112.5l2 203q0 111 -63.5 168t-174.5 57 h-268v142h182q106 0 175 73.5t69 167.5v103q0 96 -57.5 145t-157.5 49h-182q-96 0 -150.5 -70.5t-54.5 -166.5v-1026l153 -4v-115h-456v115l139 4v811h-172z" />
<glyph unicode="&#xe0;" horiz-adv-x="1208" d="M119 217v98q0 287 303 287h397v205q0 82 -42 114.5t-128 32.5h-307v-161h-152v249q94 47 252 48h228q313 0 313 -269v-702l139 -4v-115l-264 -10l-22 153h-7q-31 -63 -95 -112t-163 -49h-178q-121 0 -197.5 62t-76.5 173zM268 1509l166 45l225 -352h-135zM283 238 q0 -121 145 -121h137q115 0 184.5 56t69.5 159v147h-385q-76 0 -113.5 -30.5t-37.5 -106.5v-104z" />
<glyph unicode="&#xe1;" horiz-adv-x="1208" d="M119 217v98q0 287 303 287h397v205q0 82 -42 114.5t-128 32.5h-307v-161h-152v249q94 47 252 48h228q313 0 313 -269v-702l139 -4v-115l-264 -10l-22 153h-7q-31 -63 -95 -112t-163 -49h-178q-121 0 -197.5 62t-76.5 173zM283 238q0 -121 145 -121h137q115 0 184.5 56 t69.5 159v147h-385q-76 0 -113.5 -30.5t-37.5 -106.5v-104zM471 1202l223 352l168 -45l-254 -307h-137z" />
<glyph unicode="&#xe2;" horiz-adv-x="1208" d="M119 217v98q0 287 303 287h397v205q0 82 -42 114.5t-128 32.5h-307v-161h-152v249q94 47 252 48h228q313 0 313 -269v-702l139 -4v-115l-264 -10l-22 153h-7q-31 -63 -95 -112t-163 -49h-178q-121 0 -197.5 62t-76.5 173zM283 238q0 -121 145 -121h137q115 0 184.5 56 t69.5 159v147h-385q-76 0 -113.5 -30.5t-37.5 -106.5v-104zM293 1202l213 324h145l223 -324h-151l-141 213l-142 -213h-147z" />
<glyph unicode="&#xe3;" horiz-adv-x="1208" d="M119 217v98q0 287 303 287h397v205q0 82 -42 114.5t-128 32.5h-307v-161h-152v249q94 47 252 48h228q313 0 313 -269v-702l139 -4v-115l-264 -10l-22 153h-7q-31 -63 -95 -112t-163 -49h-178q-121 0 -197.5 62t-76.5 173zM221 1245q23 104 66 148.5t125 44.5 q55 0 157.5 -29t157.5 -29q31 0 51.5 13.5t27.5 25t21 39.5l82 -16h-2q-33 -193 -180 -193q-53 0 -158.5 29t-160.5 29q-47 0 -65.5 -17.5t-37.5 -60.5zM283 238q0 -121 145 -121h137q115 0 184.5 56t69.5 159v147h-385q-76 0 -113.5 -30.5t-37.5 -106.5v-104z" />
<glyph unicode="&#xe4;" horiz-adv-x="1208" d="M119 217v98q0 287 303 287h397v205q0 82 -42 114.5t-128 32.5h-307v-161h-152v249q94 47 252 48h228q313 0 313 -269v-702l139 -4v-115l-264 -10l-22 153h-7q-31 -63 -95 -112t-163 -49h-178q-121 0 -197.5 62t-76.5 173zM281 1235v225h176v-225h-176zM283 238 q0 -121 145 -121h137q115 0 184.5 56t69.5 159v147h-385q-76 0 -113.5 -30.5t-37.5 -106.5v-104zM659 1235v225h179v-225h-179z" />
<glyph unicode="&#xe5;" horiz-adv-x="1208" d="M119 217v98q0 287 303 287h397v205q0 82 -42 114.5t-128 32.5h-307v-161h-152v249q94 47 252 48h228q313 0 313 -269v-702l139 -4v-115l-264 -10l-22 153h-7q-31 -63 -95 -112t-163 -49h-178q-121 0 -197.5 62t-76.5 173zM283 238q0 -121 145 -121h137q115 0 184.5 56 t69.5 159v147h-385q-76 0 -113.5 -30.5t-37.5 -106.5v-104zM373 1384q0 88 59.5 151.5t147.5 63.5q98 0 152 -57t54 -143q0 -92 -60 -151.5t-146 -59.5q-92 0 -149.5 58t-57.5 138zM471 1395q0 -49 30.5 -84t78.5 -35q45 0 77.5 35t32.5 84t-28.5 85t-81.5 36q-49 0 -79 -35 t-30 -86z" />
<glyph unicode="&#xe6;" horiz-adv-x="1828" d="M119 217v111q0 287 303 286h397v193q0 82 -42 114.5t-128 32.5h-307v-161h-152v249q76 47 252 48h228q176 0 254 -86q100 86 309 86h65q178 0 283 -76t105 -273v-223l-144 -24h-557v-183q0 -100 47 -148t162 -48h461v-78q-72 -61 -215 -62h-250q-215 0 -309 134 q-68 -133 -275 -134h-213q-121 0 -197.5 65.5t-76.5 176.5zM283 238q0 -66 41 -96.5t104 -30.5h217q76 0 125 39.5t49 134.5v207h-385q-76 0 -113.5 -31t-37.5 -107v-116zM985 616h541v160q0 102 -51.5 140t-159.5 38h-117q-115 0 -164 -49t-49 -151v-138z" />
<glyph unicode="&#xe7;" horiz-adv-x="1056" d="M143 346v381q0 186 95.5 274.5t283.5 88.5h250q123 0 203 -48v-274h-148v182h-348q-86 0 -129 -51t-43 -139v-432q0 -115 45 -164t158 -49h465v-90q-72 -49 -223 -50h-17q94 -76 94 -176q0 -94 -71.5 -144t-167.5 -50q-88 0 -189 28v97h170q47 0 82 23.5t35 64.5 q0 78 -80 157h-76q-197 0 -293 88t-96 283z" />
<glyph unicode="&#xe8;" horiz-adv-x="1150" d="M143 322v397q0 209 108.5 290t303.5 81h66q84 0 148.5 -15.5t120.5 -51.5t87 -107.5t31 -174.5v-213l-144 -24h-557v-193q0 -102 47 -149t162 -47h461v-78q-68 -61 -215 -62h-250q-160 0 -264.5 83.5t-104.5 263.5zM307 627h541v149q0 102 -51.5 140t-159.5 38h-117 q-115 0 -164 -49t-49 -151v-127zM311 1509l166 45l225 -352h-135z" />
<glyph unicode="&#xe9;" horiz-adv-x="1150" d="M143 322v397q0 209 108.5 290t303.5 81h66q84 0 148.5 -15.5t120.5 -51.5t87 -107.5t31 -174.5v-213l-144 -24h-557v-193q0 -102 47 -149t162 -47h461v-78q-68 -61 -215 -62h-250q-160 0 -264.5 83.5t-104.5 263.5zM307 627h541v149q0 102 -51.5 140t-159.5 38h-117 q-115 0 -164 -49t-49 -151v-127zM518 1202l223 352l168 -45l-254 -307h-137z" />
<glyph unicode="&#xea;" horiz-adv-x="1150" d="M143 322v397q0 209 108.5 290t303.5 81h66q84 0 148.5 -15.5t120.5 -51.5t87 -107.5t31 -174.5v-213l-144 -24h-557v-193q0 -102 47 -149t162 -47h461v-78q-68 -61 -215 -62h-250q-160 0 -264.5 83.5t-104.5 263.5zM307 627h541v149q0 102 -51.5 140t-159.5 38h-117 q-115 0 -164 -49t-49 -151v-127zM309 1202l213 324h146l223 -324h-152l-141 213l-141 -213h-148z" />
<glyph unicode="&#xeb;" horiz-adv-x="1150" d="M143 322v397q0 209 108.5 290t303.5 81h66q84 0 148.5 -15.5t120.5 -51.5t87 -107.5t31 -174.5v-213l-144 -24h-557v-193q0 -102 47 -149t162 -47h461v-78q-68 -61 -215 -62h-250q-160 0 -264.5 83.5t-104.5 263.5zM307 627h541v149q0 102 -51.5 140t-159.5 38h-117 q-115 0 -164 -49t-49 -151v-127zM328 1235v225h176v-225h-176zM707 1235v225h178v-225h-178z" />
<glyph unicode="&#xec;" horiz-adv-x="643" d="M18 1509l166 45l226 -352h-136zM94 946v115l324 4v-946l139 -4v-115h-442v115l139 4v827h-160z" />
<glyph unicode="&#xed;" horiz-adv-x="643" d="M94 946v115l324 4v-946l139 -4v-115h-442v115l139 4v827h-160zM227 1202l224 352l167 -45l-253 -307h-138z" />
<glyph unicode="&#xee;" horiz-adv-x="643" d="M18 1202l213 324h146l223 -324h-151l-142 213l-141 -213h-148zM94 946v115l324 4v-946l139 -4v-115h-442v115l139 4v827h-160z" />
<glyph unicode="&#xef;" horiz-adv-x="643" d="M25 1235v225h176v-225h-176zM94 946v115l324 4v-946l139 -4v-115h-442v115l139 4v827h-160zM403 1235v225h179v-225h-179z" />
<glyph unicode="&#xf0;" horiz-adv-x="1204" d="M143 319v404q0 168 96.5 256t266.5 88h229l-125 178l-381 -78l-20 111l330 68l-101 145l154 18l94 -133l346 72l19 -113l-293 -59l233 -330l10 -12q59 -90 60 -223v-379q0 -168 -91 -262.5t-259 -94.5h-205q-170 0 -266.5 88t-96.5 256zM307 303q0 -88 40 -142.5 t126 -54.5h266q76 0 117 57.5t41 137.5v440q0 80 -41 137.5t-117 57.5h-266q-166 0 -166 -195v-438z" />
<glyph unicode="&#xf1;" horiz-adv-x="1314" d="M94 946v115l316 4l6 -74q100 98 282 99h123q117 0 193 -57.5t76 -182.5v-731l139 -4v-115h-443v115l140 4v712q0 111 -138 111h-124q-158 0 -246 -31v-792l139 -4v-115h-442v115l139 4v827h-160zM336 1245q23 104 65.5 148.5t124.5 44.5q55 0 157.5 -29t158.5 -29 q31 0 51 13.5t27.5 25t21.5 39.5l82 -16h-2q-33 -193 -180 -193q-53 0 -158.5 29t-161.5 29q-47 0 -65.5 -17.5t-36.5 -60.5z" />
<glyph unicode="&#xf2;" horiz-adv-x="1204" d="M143 319v426q0 168 96.5 256.5t266.5 88.5h205q168 0 259 -94.5t91 -262.5v-401q0 -168 -91 -262.5t-259 -94.5h-205q-170 0 -266.5 88t-96.5 256zM297 1509l166 45l225 -352h-135zM307 303q0 -88 40 -142.5t126 -54.5h266q76 0 117 57.5t41 137.5v463q0 80 -41 137 t-117 57h-266q-166 0 -166 -194v-461z" />
<glyph unicode="&#xf3;" horiz-adv-x="1204" d="M143 319v426q0 168 96.5 256.5t266.5 88.5h205q168 0 259 -94.5t91 -262.5v-401q0 -168 -91 -262.5t-259 -94.5h-205q-170 0 -266.5 88t-96.5 256zM307 303q0 -88 40 -142.5t126 -54.5h266q76 0 117 57.5t41 137.5v463q0 80 -41 137t-117 57h-266q-166 0 -166 -194v-461z M518 1202l223 352l168 -45l-254 -307h-137z" />
<glyph unicode="&#xf4;" horiz-adv-x="1204" d="M143 319v426q0 168 96.5 256.5t266.5 88.5h205q168 0 259 -94.5t91 -262.5v-401q0 -168 -91 -262.5t-259 -94.5h-205q-170 0 -266.5 88t-96.5 256zM307 303q0 -88 40 -142.5t126 -54.5h266q76 0 117 57.5t41 137.5v463q0 80 -41 137t-117 57h-266q-166 0 -166 -194v-461z M311 1202l213 324h146l223 -324h-152l-141 213l-141 -213h-148z" />
<glyph unicode="&#xf5;" horiz-adv-x="1204" d="M143 319v426q0 168 96.5 256.5t266.5 88.5h205q168 0 259 -94.5t91 -262.5v-401q0 -168 -91 -262.5t-259 -94.5h-205q-170 0 -266.5 88t-96.5 256zM260 1245q23 104 66 148.5t125 44.5q53 0 157.5 -29t157.5 -29q31 0 51.5 13.5t27.5 25t21 39.5l82 -16h-2 q-33 -193 -180 -193q-53 0 -158.5 29t-161.5 29q-47 0 -65.5 -17.5t-36.5 -60.5zM307 303q0 -88 40 -142.5t126 -54.5h266q76 0 117 57.5t41 137.5v463q0 80 -41 137t-117 57h-266q-166 0 -166 -194v-461z" />
<glyph unicode="&#xf6;" horiz-adv-x="1204" d="M143 319v426q0 168 96.5 256.5t266.5 88.5h205q168 0 259 -94.5t91 -262.5v-401q0 -168 -91 -262.5t-259 -94.5h-205q-170 0 -266.5 88t-96.5 256zM307 303q0 -88 40 -142.5t126 -54.5h266q76 0 117 57.5t41 137.5v463q0 80 -41 137t-117 57h-266q-166 0 -166 -194v-461z M324 1235v225h176v-225h-176zM702 1235v225h179v-225h-179z" />
<glyph unicode="&#xf7;" d="M78 532v134h1016v-134h-1016zM481 168v207h209v-207h-209zM481 817v207h209v-207h-209z" />
<glyph unicode="&#xf8;" horiz-adv-x="1204" d="M143 319v426q0 168 96.5 256.5t266.5 88.5h205q20 0 30 -3l45 144l111 -23l-45 -141q102 -33 155.5 -120t53.5 -214v-401q0 -168 -91 -262.5t-259 -94.5h-201l-47 -149l-117 24l43 138q-246 55 -246 331zM307 303q0 -168 121 -192l270 847h-225q-166 0 -166 -194v-461z M551 106h188q76 0 117 57.5t41 137.5v463q0 129 -84 176z" />
<glyph unicode="&#xf9;" horiz-adv-x="1314" d="M80 954v107l317 12v-840q0 -111 138 -110h124q143 0 246 31v800h-153v107l317 12v-954l145 -4v-115l-282 -14l-14 88q-104 -98 -283 -99h-133q-117 0 -193 57.5t-76 182.5v739h-153zM461 1509l166 45l225 -352h-135z" />
<glyph unicode="&#xfa;" horiz-adv-x="1314" d="M80 954v107l317 12v-840q0 -111 138 -110h124q143 0 246 31v800h-153v107l317 12v-954l145 -4v-115l-282 -14l-14 88q-104 -98 -283 -99h-133q-117 0 -193 57.5t-76 182.5v739h-153zM461 1202l223 352l168 -45l-254 -307h-137z" />
<glyph unicode="&#xfb;" horiz-adv-x="1314" d="M80 954v107l317 12v-840q0 -111 138 -110h124q143 0 246 31v800h-153v107l317 12v-954l145 -4v-115l-282 -14l-14 88q-104 -98 -283 -99h-133q-117 0 -193 57.5t-76 182.5v739h-153zM367 1202l213 324h145l223 -324h-151l-142 213l-141 -213h-147z" />
<glyph unicode="&#xfc;" horiz-adv-x="1314" d="M80 954v107l317 12v-840q0 -111 138 -110h124q143 0 246 31v800h-153v107l317 12v-954l145 -4v-115l-282 -14l-14 88q-104 -98 -283 -99h-133q-117 0 -193 57.5t-76 182.5v739h-153zM379 1235v225h176v-225h-176zM758 1235v225h178v-225h-178z" />
<glyph unicode="&#xfd;" horiz-adv-x="1150" d="M16 950v115h463v-115h-162l275 -628l18 -82h6l17 73l213 637h-135v115h424v-115l-127 -4l-420 -1141q-18 -49 -39 -85.5t-57.5 -81t-97 -68t-138.5 -23.5h-131l-19 15v121h164q43 0 75 13t52.5 39.5t29.5 44t19 46.5l89 237l-394 883zM553 1202l223 352l168 -45 l-254 -307h-137z" />
<glyph unicode="&#xfe;" horiz-adv-x="1249" d="M70 1376v115l323 8v-508q100 98 275 99h147q291 0 291 -250v-561q0 -156 -89 -230t-216 -74h-142q-174 0 -266 101v-391l187 -4v-115h-490v115l139 4v1691h-159zM393 188q104 -70 262 -69h144q143 0 143 155v549q0 33 -11 56.5t-26.5 36t-39 18.5t-40 7t-39.5 1h-149 q-47 0 -130 -9t-114 -22v-723z" />
<glyph unicode="&#xff;" horiz-adv-x="1159" d="M16 950v115h463v-115h-162l275 -628l18 -82h6l17 73l213 637h-135v115h424v-115l-127 -4l-420 -1141q-18 -49 -39 -85.5t-57.5 -81t-97 -68t-138.5 -23.5h-131l-19 15v121h164q43 0 75 13t52.5 39.5t29.5 44t19 46.5l89 237l-394 883zM297 1235v225h176v-225h-176z M676 1235v225h178v-225h-178z" />
<glyph unicode="&#x152;" horiz-adv-x="2152" d="M143 422v579q0 211 119 313.5t332 102.5h1411l2 -303h-160v168h-620v-473h446v137h152v-424h-152v150h-446v-537h633v168h159v-303h-1425q-213 0 -332 105.5t-119 316.5zM315 420q0 -131 67 -208t196 -77h479v1149h-479q-127 0 -195 -79t-68 -210v-575z" />
<glyph unicode="&#x153;" horiz-adv-x="1904" d="M143 319v426q0 168 96.5 256.5t266.5 88.5h205q178 0 268 -107q98 106 330 107h65q178 0 282.5 -76t104.5 -273v-213l-143 -24h-557v-193q0 -100 47 -148t162 -48h461v-78q-72 -61 -215 -62h-250q-190 0 -287 105q-92 -104 -268 -105h-205q-170 0 -266.5 88t-96.5 256z M307 303q0 -88 41 -142.5t125 -54.5h266q78 0 118 56.5t40 138.5v463q0 82 -40 138t-118 56h-266q-84 0 -125 -53t-41 -141v-461zM1061 627h541v149q0 102 -51.5 140t-159.5 38h-117q-115 0 -164 -49t-49 -151v-127z" />
<glyph unicode="&#x178;" horiz-adv-x="1314" d="M25 1303v114h450v-114h-135l311 -512l15 -29h4l12 26l311 515h-131v114h428v-114l-125 -5l-424 -673v-508l168 -2v-115h-508v115l168 4v506l-417 673zM403 1563v225h177v-225h-177zM782 1563v225h179v-225h-179z" />
<glyph unicode="&#x2c6;" horiz-adv-x="778" d="M98 1202l213 324h146l223 -324h-152l-141 213l-141 -213h-148z" />
<glyph unicode="&#x2dc;" horiz-adv-x="935" d="M123 1245q23 104 65.5 148.5t124.5 44.5q55 0 157.5 -29t158.5 -29q31 0 51 13.5t27.5 25t21.5 39.5l82 -16h-2q-33 -193 -180 -193q-53 0 -158.5 29t-161.5 29q-47 0 -65.5 -17.5t-36.5 -60.5z" />
<glyph unicode="&#x2013;" horiz-adv-x="1187" d="M117 537v135h954v-135h-954z" />
<glyph unicode="&#x2014;" horiz-adv-x="1556" d="M117 537v135h1323v-135h-1323z" />
<glyph unicode="&#x2018;" horiz-adv-x="473" d="M121 1049v86l133 364h98l-51 -246l18 -204h-198z" />
<glyph unicode="&#x2019;" horiz-adv-x="473" d="M121 1049l51 245l-18 205h198v-86l-133 -364h-98z" />
<glyph unicode="&#x201a;" horiz-adv-x="503" d="M121 -268l51 245l-18 205h198v-86l-133 -364h-98z" />
<glyph unicode="&#x201c;" horiz-adv-x="839" d="M121 1049v86l133 364h98l-51 -246l18 -204h-198zM487 1049v86l134 364h98l-51 -246l18 -204h-199z" />
<glyph unicode="&#x201d;" horiz-adv-x="839" d="M121 1049l51 245l-18 205h198v-86l-133 -364h-98zM487 1049l52 245l-19 205h199v-86l-133 -364h-99z" />
<glyph unicode="&#x201e;" horiz-adv-x="839" d="M121 -268l51 245l-18 205h198v-86l-133 -364h-98zM487 -268l52 245l-19 205h199v-86l-133 -364h-99z" />
<glyph unicode="&#x2022;" horiz-adv-x="745" d="M102 725q0 117 80 198t191 81q113 0 191.5 -81t78.5 -198q0 -115 -79 -197t-191 -82q-111 0 -191 82t-80 197z" />
<glyph unicode="&#x2026;" horiz-adv-x="1552" d="M152 0v207h200v-207h-200zM676 0v207h201v-207h-201zM1200 0v207h201v-207h-201z" />
<glyph unicode="&#x2039;" horiz-adv-x="673" d="M90 506v106l412 342l80 -88l-308 -299l310 -340l-82 -82z" />
<glyph unicode="&#x203a;" horiz-adv-x="673" d="M90 227l309 340l-307 299l80 88l412 -342v-106l-412 -361z" />
<glyph unicode="&#x20ac;" horiz-adv-x="1437" d="M90 467v137h191v203h-191v137h191v12q0 242 107.5 364t344.5 122h326q172 0 235 -53v-275h-159v189h-410q-160 0 -215 -86.5t-55 -255.5v-17h520v-137h-520v-203h520v-137h-520v-10q0 -170 55 -256t215 -86h410v188h159v-274q-63 -53 -235 -54h-326q-238 0 -345 122 t-107 364v6h-191z" />
<glyph unicode="&#x2122;" horiz-adv-x="1505" d="M78 1251v164h543v-164h-97v84h-121v-481l68 -2v-66h-244v66l68 2v481h-121v-84h-96zM678 786v66l65 2v496h-65v65h229l142 -381h4l145 381h229v-65h-65v-496l65 -2v-66h-237v66l67 2v383l3 104h-5l-30 -90l-131 -340h-97l-127 336l-32 94h-4l4 -104v-383l65 -2v-66h-225z " />
<glyph unicode="&#xe000;" horiz-adv-x="1065" d="M0 1065h1065v-1065h-1065v1065z" />
<glyph unicode="&#xfb01;" horiz-adv-x="1318" d="M82 930v123h172v170q0 295 420 295q182 0 319 -19v-115h-426q-150 0 -149 -137v-194h352l324 28v-962l139 -4v-115h-442v115l139 4v811h-512v-811l170 -4v-115h-473v115l139 4v811h-172z" />
<glyph unicode="&#xfb02;" horiz-adv-x="1316" d="M82 930v123h170v200q0 137 103.5 207t271.5 70q137 0 301 -12l164 10v-1409l139 -4v-115h-443v115l140 4v1278h-389q-37 0 -80 -35t-43 -98v-211h325v-123h-325v-811l172 -4v-115h-475v115l139 4v811h-170z" />
<glyph unicode="&#xfb03;" horiz-adv-x="2191" d="M82 930v123h172v198q0 264 348 265q131 0 203 -23v-109h-270q-117 0 -117 -96v-235h272v-123h-272v-811l170 -4v-115h-473v115l139 4v811h-172zM856 930v123h172v198q0 264 348 265q131 0 203 -23v-109h-270q-117 0 -117 -96v-235h272v-123h-272v-811l170 -4v-115h-473 v115l139 4v811h-172zM1642 946v115l324 4v-946l139 -4v-115h-442v115l139 4v827h-160zM1802 1294v205h164v-205h-164z" />
<glyph unicode="&#xfb04;" horiz-adv-x="2166" d="M82 930v123h172v198q0 264 348 265q131 0 203 -23v-109h-270q-117 0 -117 -96v-235h272v-123h-272v-811l170 -4v-115h-473v115l139 4v811h-172zM856 930v123h172v198q0 264 348 265q131 0 203 -23v-109h-270q-117 0 -117 -96v-235h272v-123h-272v-811l170 -4v-115h-473 v115l139 4v811h-172zM1618 1376v115l319 8v-1380l144 -4v-115h-443v115l136 4v1257h-156z" />
<glyph horiz-adv-x="1024" />
</font>
</defs>
</svg>
