<?xml version="1.0" standalone="no"?>
<!DOCTYPE svg PUBLIC "-//W3C//DTD SVG 1.1//EN" "http://www.w3.org/Graphics/SVG/1.1/DTD/svg11.dtd" >
<svg xmlns="http://www.w3.org/2000/svg">
<metadata>
This is a custom SVG webfont generated by Font Squirrel.
Copyright   : FTF Morgan Sans Copyright c Feliciano Type Foundry 20002005 All rights reserved
Designer    : Mario Feliciano
Foundry     : Feliciano Type Foundry
Foundry URL : wwwfelicianotypefoundrycom
</metadata>
<defs>
<font id="MorganSansLiningObliqueRg" horiz-adv-x="1171" >
<font-face units-per-em="2048" ascent="1638" descent="-410" />
<missing-glyph horiz-adv-x="450" />
<glyph unicode=" "  horiz-adv-x="450" />
<glyph unicode="&#x09;" horiz-adv-x="450" />
<glyph unicode="&#xa0;" horiz-adv-x="450" />
<glyph unicode="!" horiz-adv-x="692" d="M182 0l29 207h201l-29 -207h-201zM262 373l127 1044h184l-163 -1044h-148z" />
<glyph unicode="&#x22;" horiz-adv-x="839" d="M162 1049l86 245l10 205h199l-13 -86l-184 -364h-98zM528 1049l86 245l11 205h198l-12 -86l-184 -364h-99z" />
<glyph unicode="#" d="M94 270l31 140h203l116 571h-221l31 139h211l59 297h135l-59 -297h287l59 297h133l-61 -297h205l-23 -139h-205l-116 -571h215l-25 -140h-215l-61 -297h-134l62 297h-289l-59 -297h-131l63 297h-211zM461 410h289l112 571h-291z" />
<glyph unicode="$" horiz-adv-x="1101" d="M106 86l15 102h565q141 0 162 136q18 127 18 149q0 61 -34.5 88t-122.5 45q-326 59 -419 105.5t-93 162.5q0 18 22 175q45 309 383 309h39l29 201h145l-29 -201h97q170 0 225 -53l-16 -86h-525q-160 0 -182 -154q-16 -121 -16 -141q0 -16 4 -28.5t10 -22t18.5 -17.5 t20.5 -12t27.5 -9.5t28.5 -8.5t31.5 -7t31.5 -6l227 -47q143 -31 203.5 -87t60.5 -161q0 -61 -18 -186q-41 -283 -330 -283h-82l-31 -215h-145l31 215h-125q-160 0 -226 37z" />
<glyph unicode="%" horiz-adv-x="1818" d="M176 842q0 16 4 57l39 281q37 262 295 262h131q227 0 227 -201q0 -39 -4 -61l-39 -281q-35 -250 -297 -250h-131q-225 0 -225 193zM324 852q0 -41 19 -59.5t69 -18.5h147q61 0 90 33t39 100q43 297 43 322q0 45 -21.5 65.5t-74.5 20.5h-148q-63 0 -85.5 -26.5 t-32.5 -94.5l-41 -295q-4 -37 -4 -47zM393 -6l1071 1505l113 -47l-1071 -1505zM1055 168q0 16 4 57l39 281q37 262 295 262h131q227 0 227 -201q0 -39 -4 -61l-39 -281q-35 -250 -297 -250h-131q-225 0 -225 193zM1202 178q0 -41 19.5 -59.5t68.5 -18.5h148q61 0 89.5 33 t39.5 100q43 297 43 322q0 45 -21.5 65.5t-75.5 20.5h-147q-63 0 -86 -26.5t-33 -94.5l-41 -295q-4 -37 -4 -47z" />
<glyph unicode="&#x26;" horiz-adv-x="1456" d="M141 270l35 232q14 96 98 165.5t215 77.5v7q-174 47 -174 221l19 149q39 319 395 320h348q170 0 226 -53l-13 -93h-565q-111 0 -156 -35.5t-63 -160.5l-19 -127q0 -168 168 -168h772l-20 -141h-199l-94 -664l-10 -8h-639q-152 0 -238 68.5t-86 209.5zM313 276 q0 -41 12.5 -69.5t31 -44t51 -24.5t63.5 -11t78 -2h430l78 539h-410q-279 0 -305 -183z" />
<glyph unicode="'" horiz-adv-x="473" d="M162 1049l86 245l10 205h199l-13 -86l-184 -364h-98z" />
<glyph unicode="(" horiz-adv-x="753" d="M182 59q0 217 78 693q12 80 22.5 135t33 147t47 156.5t64.5 141.5t87 124t112.5 79t143.5 32h88l-18 -125h-88q-76 0 -138.5 -72t-99.5 -186.5t-56.5 -199.5t-31.5 -169l-66 -471q-23 -172 -22 -324q0 -328 168 -327h88l-19 -127h-88q-305 -1 -305 493z" />
<glyph unicode=")" horiz-adv-x="753" d="M-133 -434l18 127h88q76 0 138.5 74.5t100.5 194.5t57.5 208t31.5 174l68 471q20 147 20 268q0 358 -170 359h-88l16 125h89q309 0 309 -482q0 -80 -9.5 -179t-18.5 -168.5t-27.5 -187.5t-24.5 -167q-115 -817 -510 -817h-88z" />
<glyph unicode="*" horiz-adv-x="884" d="M178 1266l76 106l217 -133l37 260h121l-37 -260l254 133l45 -106l-264 -140l127 -239l-111 -70l-135 256l-209 -256l-92 70l192 239z" />
<glyph unicode="+" d="M98 532l19 134h430l61 428h133l-61 -428h428l-18 -134h-428l-62 -430h-133l61 430h-430z" />
<glyph unicode="," horiz-adv-x="503" d="M6 -244l86 246l10 205h199l-12 -86l-185 -365h-98z" />
<glyph unicode="-" horiz-adv-x="638" d="M57 516l23 154h569l-22 -154h-570z" />
<glyph unicode="." horiz-adv-x="503" d="M90 0l29 207h200l-28 -207h-201z" />
<glyph unicode="/" horiz-adv-x="745" d="M-47 -432l672 1964h141l-668 -1964h-145z" />
<glyph unicode="0" d="M98 319l84 586q25 176 140.5 260t295.5 84h144q180 0 274 -85q76 -69 76 -195q0 -30 -4 -64l-84 -586q-23 -174 -141.5 -259t-298.5 -85h-144q-180 0 -273 84q-74 66 -74 191q0 32 5 69zM262 303q-2 -18 -2 -34q0 -73 45 -111q55 -47 158 -47h137q106 0 176 51t84 153 l84 590q3 22 3 41q0 74 -44 116q-55 52 -162 52h-137q-227 0 -256 -209z" />
<glyph unicode="1" d="M137 0l19 135h344l133 938h-320l17 127l493 39l-155 -1104h311l-18 -135h-824z" />
<glyph unicode="2" d="M92 0l49 354q37 242 340 285l217 31q174 25 193 153l16 129q2 12 2 24q0 51 -38 86q-46 42 -162 42h-447l14 108q117 37 259 37h196q166 0 260 -70q79 -59 79 -165q0 -21 -3 -43l-23 -150q-33 -246 -315 -286l-221 -31q-70 -10 -104.5 -20.5t-66.5 -44t-40 -93.5 l-29 -207h705l-21 -139h-860z" />
<glyph unicode="3" d="M59 -141l15 98h475q238 0 266 207l19 135q4 26 4 48q0 68 -39 97q-51 39 -168 39h-344l20 146h373q94 0 134 43t56 164l11 67q3 25 3 47q0 84 -50 115q-63 39 -193 39h-389l14 98q90 47 213 47h236q172 0 259 -78q69 -62 69 -175q0 -29 -5 -62l-12 -86 q-18 -129 -61 -187.5t-144 -87.5l-2 -16q109 -16 151 -91q31 -56 31 -126q0 -24 -4 -49l-18 -121q-25 -184 -130.5 -271t-260.5 -87h-301q-154 0 -228 47z" />
<glyph unicode="4" d="M39 213l18 125l719 887h207l-123 -883h240l-19 -129h-239l-58 -410h-155l57 410h-647zM205 342h500l102 735h-10z" />
<glyph unicode="5" d="M61 -139l15 98h516q68 0 116 17.5t71.5 49t34.5 61.5t17 67l25 176q3 21 3 39q0 65 -39 99q-50 44 -128 44h-495l100 713h784l-22 -152h-635l-59 -422h372q143 0 224 -83q65 -67 64 -165q0 -23 -3 -47l-25 -180q-23 -162 -132 -263t-269 -101h-305q-177 0 -230 49z" />
<glyph unicode="6" d="M109 319l104 748q27 188 129 269t295 81h311q123 0 197 -47l-12 -92h-517q-123 0 -171 -36t-64 -146l-41 -289q100 90 287 90h168q135 0 215 -78q62 -61 62 -169q0 -30 -5 -64l-37 -271q-47 -340 -395 -340h-219q-170 0 -252 77q-62 58 -62 181q0 39 7 86zM268 289 q-4 -27 -4 -50q0 -58 27 -87q37 -41 121 -41h247q98 0 144.5 41t60.5 147l43 309q2 13 2 26q0 49 -32 82q-41 42 -117 42h-191q-129 0 -239 -31z" />
<glyph unicode="7" d="M178 -188l791 1261h-740l21 152h905l-20 -142l-795 -1271h-162z" />
<glyph unicode="8" d="M76 287l22 153q12 96 90 176t185 95l2 8q-106 27 -154 93q-34 48 -34 125q0 30 6 64l10 76q25 164 130 252t271 88h189q168 0 254 -84q68 -67 68 -180q0 -30 -5 -63l-12 -89q-16 -123 -81 -187t-190 -95l-2 -8q106 -16 165 -97q48 -66 48 -141q0 -16 -2 -33l-22 -153 q-23 -164 -141.5 -238t-284.5 -74h-182q-164 0 -259 73q-76 59 -76 178q1 29 5 61zM246 317q-4 -27 -4 -50q0 -73 39 -109q51 -47 161 -47h154q111 0 175.5 46t80.5 160l16 121q4 24 4 45q0 156 -204 156h-162q-90 0 -158.5 -48t-85.5 -153zM346 958q-2 -16 -2 -31 q0 -64 42 -102q52 -47 146 -47h148q225 0 252 180l18 127q3 24 4 46q0 151 -168 151h-213q-184 0 -208 -197z" />
<glyph unicode="9" d="M63 -139l13 92h516q123 0 172 36t63 146l39 285q-98 -90 -284 -90h-168q-135 0 -215 78q-62 61 -63 168q0 30 5 65l37 270q47 340 393 340h220q170 0 252 -77q63 -59 63 -182q0 -39 -6 -85l-105 -743q-27 -188 -129 -269t-295 -81h-311q-123 0 -197 47zM301 618 q-2 -13 -2 -25q0 -49 33 -82q41 -42 117 -42h190q129 0 240 31l61 438q4 27 4 50q0 58 -26 87q-37 41 -121 41h-248q-98 0 -144.5 -41t-60.5 -147z" />
<glyph unicode=":" horiz-adv-x="503" d="M88 0l31 207h200l-30 -207h-201zM186 690l29 207h201l-29 -207h-201z" />
<glyph unicode=";" horiz-adv-x="503" d="M6 -244l86 246l10 205h199l-12 -86l-185 -365h-98zM186 690l29 207h201l-29 -207h-201z" />
<glyph unicode="&#x3c;" d="M166 563l12 88l856 441l53 -119l-700 -365l596 -364l-84 -119z" />
<glyph unicode="=" d="M70 352l20 133h1000l-21 -133h-999zM121 715l20 133h1000l-21 -133h-999z" />
<glyph unicode="&#x3e;" d="M121 244l702 364l-598 365l86 119l729 -441l-12 -88l-856 -438z" />
<glyph unicode="?" horiz-adv-x="1116" d="M262 1300l14 109q117 37 259 37h221q164 0 251 -70q72 -57 71 -162q0 -22 -3 -47l-18 -127q-18 -135 -69.5 -204.5t-180.5 -96.5l-158 -34q-33 -6 -48 -12.5t-32.5 -30t-23.5 -66.5l-33 -225h-156l35 241q14 100 64.5 154.5t193.5 85.5l111 25q72 14 99.5 39.5 t39.5 103.5l19 129q1 12 1 23q0 53 -32 88q-39 41 -154 40h-471zM287 0l24 182h201l-25 -182h-200z" />
<glyph unicode="@" horiz-adv-x="2191" d="M219 420q0 561 237.5 800.5t757.5 239.5q367 0 581 -163.5t214 -510.5q0 -379 -156.5 -582.5t-480.5 -203.5h-430q-270 0 -270 205q0 29 2 41l59 547q16 121 85 196.5t194 75.5h501l-100 -930h10q129 0 221 50q95 52 145 147.5t71.5 202t21.5 235.5q0 301 -183 440.5 t-499 139.5q-455 0 -653.5 -225.5t-198.5 -710.5q0 -391 182.5 -543t587.5 -152q211 0 486 48l-7 -101q-240 -61 -553 -61q-430 0 -627.5 192.5t-197.5 622.5zM834 229q0 -41 26.5 -64.5t67.5 -23.5h332l77 785h-299q-76 0 -103.5 -24.5t-33.5 -76.5l-65 -571q0 -4 -1 -12.5 t-1 -12.5z" />
<glyph unicode="A" horiz-adv-x="1339" d="M-18 0l704 1430h232l321 -1430h-170l-90 406h-631l-194 -406h-172zM412 541h536l-157 733l-5 45h-6l-16 -45z" />
<glyph unicode="B" horiz-adv-x="1372" d="M145 0l199 1417h719q152 0 219 -84q54 -68 54 -151q0 -20 -3 -41l-14 -109q-18 -133 -72.5 -200.5t-167.5 -94.5l-2 -14q106 -16 152 -83q35 -52 35 -124q0 -20 -2 -41l-23 -151q-47 -324 -401 -324h-693zM336 133h512q106 0 157.5 45t67.5 162l17 117q4 28 3 51 q0 68 -31 100q-42 43 -153 43h-499zM430 795h500q98 0 153.5 47t71.5 159l12 93q3 23 3 42q0 65 -30 101q-40 47 -149 47h-493z" />
<glyph unicode="C" horiz-adv-x="1236" d="M154 461l69 495q33 242 158 364t362 122h326q172 0 225 -53l-12 -99h-567q-160 0 -227.5 -86t-92.5 -256l-67 -479q-8 -68 -9 -125q0 -28 3 -53q6 -76 62 -120t167 -44h567l-14 -98q-70 -53 -242 -54h-325q-238 0 -328 122q-65 88 -65 238q0 59 10 126z" />
<glyph unicode="D" horiz-adv-x="1413" d="M145 0l199 1417h621q227 0 328 -106q78 -82 78 -237q0 -47 -7 -101l-74 -516q-35 -244 -166 -350.5t-362 -106.5h-617zM336 133h432q166 0 247 77t105 253l68 491q7 48 7 89q0 104 -45 161q-62 80 -222 80h-430z" />
<glyph unicode="E" horiz-adv-x="1261" d="M145 0l199 1417h967l-19 -135h-794l-66 -465h627l-19 -137h-626l-78 -545h794l-18 -135h-967z" />
<glyph unicode="F" horiz-adv-x="1216" d="M145 0l199 1417h971l-19 -135h-798l-66 -465h625l-19 -137h-624l-97 -680h-172z" />
<glyph unicode="G" horiz-adv-x="1437" d="M150 422l79 563q33 221 165 339t333 118h449q172 0 227 -53l-14 -99h-682q-127 0 -205 -78.5t-96 -212.5l-82 -577q-5 -35 -5 -66q0 -93 41 -153q55 -80 183 -80h215q184 0 315 41l64 448h-412l18 136h584l-104 -748h-131l-15 74q-143 -98 -370 -99h-168q-217 0 -319 113 q-78 86 -78 237q1 46 8 97z" />
<glyph unicode="H" horiz-adv-x="1519" d="M145 0l199 1417h172l-86 -616h778l86 616h172l-198 -1417h-172l94 666h-778l-95 -666h-172z" />
<glyph unicode="I" horiz-adv-x="548" d="M135 0l199 1417h172l-199 -1417h-172z" />
<glyph unicode="J" horiz-adv-x="839" d="M27 6l16 117h248q145 0 166 145l161 1149h173l-158 -1126q-20 -145 -110.5 -230.5t-250.5 -85.5q-41 0 -126.5 10.5t-118.5 20.5z" />
<glyph unicode="K" horiz-adv-x="1296" d="M145 0l199 1417h174l-100 -723l788 723h197l-649 -596l475 -821h-199l-416 717l-221 -199l-74 -518h-174z" />
<glyph unicode="L" horiz-adv-x="1216" d="M145 0l199 1417h172l-180 -1282h799l-19 -135h-971z" />
<glyph unicode="M" horiz-adv-x="1761" d="M145 0l199 1417h281l282 -932h8l545 932h269l-199 -1417h-160l137 983l54 291h-17l-602 -1002h-139l-311 1002h-17l-33 -291l-137 -983h-160z" />
<glyph unicode="N" horiz-adv-x="1445" d="M88 0l201 1417h186l502 -1011l78 -193h4l41 420l110 784h148l-201 -1417h-156l-544 1087l-60 173l-4 -3l-33 -370l-124 -887h-148z" />
<glyph unicode="O" horiz-adv-x="1458" d="M150 399l88 627q31 211 162.5 313.5t347.5 102.5h270q213 0 317 -103q81 -79 81 -223q0 -42 -7 -90l-88 -627q-31 -211 -164 -317.5t-346 -106.5h-270q-213 0 -318 107q-81 82 -80 227q0 42 7 90zM322 397q-5 -32 -5 -61q0 -88 42 -146q56 -76 186 -75h303 q129 0 205.5 75.5t95.5 206.5l88 623q5 32 5 61q0 88 -43 146q-56 76 -185 76h-303q-129 0 -206 -77t-95 -206z" />
<glyph unicode="P" horiz-adv-x="1359" d="M145 0l199 1417h678q186 0 262 -75q60 -59 60 -164q0 -28 -5 -60l-39 -268q-39 -301 -411 -301h-494l-78 -549h-172zM414 684h485q125 0 174 48t64 155l28 207q4 26 4 48q0 65 -31 97q-42 43 -171 43h-469z" />
<glyph unicode="Q" horiz-adv-x="1458" d="M150 399l88 627q31 211 162.5 313.5t347.5 102.5h270q213 0 317 -103q81 -79 81 -223q0 -42 -7 -90l-88 -627q-31 -211 -164 -317.5t-346 -106.5h-51l-12 -92q-3 -23 -4 -42q0 -54 25 -83q34 -39 120 -39h168l-17 -116q-82 -20 -178 -21q-147 0 -222 66q-59 51 -59 151 q0 27 5 58l16 118h-61q-213 0 -318 107q-81 82 -80 227q0 42 7 90zM322 397q-5 -32 -5 -61q0 -88 42 -146q56 -76 186 -75h303q129 0 205.5 75.5t95.5 206.5l88 623q5 32 5 61q0 88 -43 146q-56 76 -185 76h-303q-129 0 -206 -77t-95 -206z" />
<glyph unicode="R" horiz-adv-x="1376" d="M145 0l199 1417h678q188 0 263 -74q57 -57 58 -161q0 -32 -6 -68l-32 -233q-18 -145 -116.5 -221t-244.5 -76h-59l342 -584h-203l-334 584h-291l-82 -584h-172zM418 713h465q131 0 186 43t72 157l24 187q4 27 4 49q0 69 -37 96q-50 37 -190 37h-444z" />
<glyph unicode="S" horiz-adv-x="1302" d="M80 29l12 90h725q145 0 162 135l27 188q3 22 3 41q0 53 -26 80q-35 37 -131 49l-365 50q-158 23 -221 82q-49 47 -49 134q0 25 4 54l29 201q41 309 383 309h381q174 0 225 -53l-12 -91h-629q-162 0 -182 -151l-27 -191q-2 -12 -2 -22q0 -50 40 -74q48 -29 132 -41 l352 -47q156 -20 221 -88q50 -53 50 -144q0 -26 -4 -55l-31 -229q-41 -281 -332 -281h-510q-170 1 -225 54z" />
<glyph unicode="T" horiz-adv-x="1265" d="M184 1282l19 135h1151l-19 -135h-489l-180 -1282h-172l180 1282h-490z" />
<glyph unicode="U" horiz-adv-x="1470" d="M186 391l146 1026h172l-144 -1018q-5 -32 -4 -61q0 -87 41 -144q55 -77 185 -77h247q129 0 207 75.5t97 206.5l143 1018h166l-144 -1018q-31 -211 -159.5 -317.5t-339.5 -106.5h-230q-207 0 -310 104q-80 80 -80 222q0 42 7 90z" />
<glyph unicode="V" horiz-adv-x="1282" d="M209 1417h172l229 -1179l11 -105h4l39 105l577 1179h168l-717 -1427h-182z" />
<glyph unicode="W" horiz-adv-x="1777" d="M207 1417h174l84 -1128l6 -127h4l43 127l432 1110h191l106 -1110l6 -127h4l43 127l412 1128h166l-537 -1427h-219l-106 1190h-6l-457 -1190h-211z" />
<glyph unicode="X" horiz-adv-x="1261" d="M-59 0l612 750l-328 667h193l264 -538l436 538h182l-548 -672l368 -745h-194l-303 618l-500 -618h-182z" />
<glyph unicode="Y" horiz-adv-x="1224" d="M133 1417h189l305 -657l491 657h174l-608 -792l-88 -625h-176l88 625z" />
<glyph unicode="Z" horiz-adv-x="1241" d="M-4 0l16 115l998 1167h-815l20 135h1018l-19 -123l-995 -1159h846l-21 -135h-1048z" />
<glyph unicode="[" horiz-adv-x="753" d="M115 -434l282 2001h484l-19 -123h-323l-246 -1755h323l-18 -123h-483z" />
<glyph unicode="\" horiz-adv-x="858" d="M195 1532h141l412 -1964h-146z" />
<glyph unicode="]" horiz-adv-x="753" d="M-117 -434l19 123h323l246 1755h-324l19 123h483l-282 -2001h-484z" />
<glyph unicode="^" horiz-adv-x="954" d="M104 428l291 895h166l289 -895h-158l-217 709l-217 -709h-154z" />
<glyph unicode="_" horiz-adv-x="1024" d="M-106 -281l12 127h1024l-15 -127h-1021z" />
<glyph unicode="`" horiz-adv-x="661" d="M233 1513l173 46l247 -357h-139z" />
<glyph unicode="a" horiz-adv-x="1159" d="M92 233l12 107q16 143 110.5 215t229.5 72h383l31 219q0 96 -156 96h-438l15 100q84 47 258 48h206q281 0 281 -230l-80 -571q-12 -92 -12 -244v-45h-148l-2 102h-6q-84 -127 -254 -127h-168q-117 0 -189.5 72.5t-72.5 185.5zM258 248q0 -137 150 -137h163q76 0 136.5 44 t72.5 138l31 211h-348q-90 0 -133 -34t-58 -124z" />
<glyph unicode="b" horiz-adv-x="1204" d="M117 0l211 1499h164l-72 -508q115 98 305 99h139q154 0 209 -68q43 -52 43 -125q0 -22 -4 -45l-80 -578q-23 -156 -124 -227.5t-228 -71.5h-137q-180 0 -256 101l-27 -76h-143zM307 188q92 -70 256 -69h146q63 0 105 34.5t50 100.5l80 561q3 17 3 32q0 43 -22 65 q-30 30 -114 30h-152q-111 0 -251 -37z" />
<glyph unicode="c" horiz-adv-x="1036" d="M127 274l57 424q27 190 130.5 291t312.5 101h198q123 0 197 -48l-14 -92h-404q-117 0 -178 -57t-78 -182q-43 -276 -57 -414q0 -111 61.5 -146.5t163.5 -35.5h375l-12 -90q-78 -49 -232 -50h-178q-342 0 -342 299z" />
<glyph unicode="d" horiz-adv-x="1204" d="M111 221l79 570q20 143 114.5 221t232.5 78h153q76 0 142.5 -26t99.5 -69l69 504h164l-209 -1499h-147l-4 78q-113 -102 -301 -103h-170q-104 0 -173 58q-54 45 -54 136q0 24 4 52zM279 254q-2 -17 -3 -32q0 -22 6 -40q9 -29 32.5 -40t44 -15t51.5 -4h125q139 0 280 37 l100 717q-96 70 -262 69h-153q-123 0 -146 -151z" />
<glyph unicode="e" horiz-adv-x="1163" d="M125 258l55 428q53 403 453 404h90q340 0 340 -299l-33 -263l-145 -24h-566l-28 -217q0 -172 205 -172h467l-11 -78q-82 -61 -225 -62h-278q-137 0 -230.5 74t-93.5 209zM336 627h551l20 184q0 80 -46 111.5t-142 31.5h-125q-115 0 -171 -55t-73 -170z" />
<glyph unicode="f" horiz-adv-x="802" d="M125 913l16 123h221l35 244q18 137 104.5 193.5t252.5 56.5q39 0 71.5 -5t67.5 -15.5t39 -10.5l-14 -102h-244h-15h-20q-4 0 -17.5 -2t-19.5 -9l-15 -15q-9 -9 -14.5 -23.5t-7.5 -34.5l-39 -277h303l-16 -123h-303l-174 -1235l-172 -61l182 1296h-221z" />
<glyph unicode="g" horiz-adv-x="1204" d="M49 -401l12 96h502q180 0 205 190l35 240q-113 -100 -299 -100h-146q-143 0 -204 61q-46 46 -46 136q0 30 5 65l69 506q20 143 118.5 220t244.5 77h157q68 0 134.5 -28t99.5 -77l33 80h129l-164 -1167q-49 -348 -410 -349h-250q-172 1 -225 50zM279 305q-2 -17 -3 -32 q0 -22 6 -40q9 -29 32.5 -40t44 -15t51.5 -4h125q139 0 280 37l92 666q-96 70 -260 69h-153q-125 0 -146 -151z" />
<glyph unicode="h" horiz-adv-x="1236" d="M117 0l211 1499h164l-72 -508q119 98 295 99h143q238 0 238 -213l-123 -877h-164l119 854q0 53 -32 70.5t-91 17.5h-187q-61 0 -125.5 -19.5t-89.5 -45.5l-122 -877h-164z" />
<glyph unicode="i" horiz-adv-x="532" d="M115 0l149 1065h164l-149 -1065h-164zM297 1294l29 205h163l-28 -205h-164z" />
<glyph unicode="j" horiz-adv-x="614" d="M-209 -430l16 115h132q113 0 159.5 39.5t65.5 171.5l166 1169h164l-166 -1178q-27 -182 -122 -260t-257 -78q-84 1 -158 21zM360 1294l29 205h164l-29 -205h-164z" />
<glyph unicode="k" horiz-adv-x="1062" d="M117 0l211 1499h164l-138 -981l553 547h185l-445 -430l344 -635h-182l-279 530l-202 -192l-47 -338h-164z" />
<glyph unicode="l" horiz-adv-x="532" d="M115 0l211 1499h163l-210 -1499h-164z" />
<glyph unicode="m" horiz-adv-x="1835" d="M117 0l149 1065h162l-10 -74q119 98 297 99h96q176 0 221 -119q147 119 328 119h96q238 0 238 -213l-123 -877h-164l119 854q0 53 -32 70.5t-91 17.5h-139q-61 0 -126 -19.5t-89 -45.5l-123 -877h-164l119 854q0 53 -32 70.5t-91 17.5h-140q-61 0 -125.5 -19.5 t-89.5 -45.5l-122 -877h-164z" />
<glyph unicode="n" horiz-adv-x="1236" d="M117 0l149 1065h162l-10 -74q119 98 297 99h143q238 0 238 -213l-123 -877h-164l119 854q0 53 -32 70.5t-91 17.5h-187q-61 0 -125.5 -19.5t-89.5 -45.5l-122 -877h-164z" />
<glyph unicode="o" horiz-adv-x="1204" d="M106 276l68 469q49 344 387 345h227q162 0 234 -80t72 -236l-62 -442q-49 -356 -373 -357h-231q-322 0 -322 301zM270 272q0 -166 150 -166h260q156 0 184 195l70 487q0 170 -135 170h-283q-150 0 -176 -194z" />
<glyph unicode="p" horiz-adv-x="1204" d="M55 -434l211 1499h150l2 -74q113 98 289 99h147q164 0 218 -70q42 -53 42 -131q0 -23 -4 -49l-78 -561q-23 -156 -122 -230t-226 -74h-141q-178 0 -256 101l-72 -510h-160zM305 188q98 -70 254 -69h143q143 0 164 155l78 549q2 14 2 27q0 23 -7 41q-11 27 -38 36t-46 12 t-50 3h-150q-47 0 -131 -9t-116 -22z" />
<glyph unicode="q" horiz-adv-x="1204" d="M111 231l77 547q20 158 115.5 235t218.5 77h160q170 0 254 -101l25 76h143l-211 -1499h-164l72 508q-113 -98 -289 -99h-166q-239 0 -239 201q0 26 4 55zM279 254q-2 -17 -3 -32q0 -22 6 -40q9 -29 32.5 -40t44 -15t51.5 -4h125q137 0 278 37l100 717q-92 70 -260 69 h-153q-125 0 -146 -151z" />
<glyph unicode="r" horiz-adv-x="849" d="M117 0l149 1065h150l-2 -88q59 43 154.5 73.5t168.5 30.5q88 0 156 -8l-21 -139h-137q-190 0 -332 -55l-122 -879h-164z" />
<glyph unicode="s" horiz-adv-x="1032" d="M63 20l15 99h500q63 0 99 20.5t45 43t15 59.5l17 108q2 15 2 27q0 37 -19 53q-25 20 -86 25l-284 26q-104 8 -166 61q-49 41 -49 116q0 20 4 42l18 136q14 106 103.5 180t228.5 74h272q117 0 185 -46l-13 -98h-458q-86 0 -117 -30.5t-39 -94.5l-14 -102q-4 -29 1 -47.5 t22 -27.5t31.5 -12t43.5 -5l287 -27q117 -12 173 -63q44 -40 43 -114q0 -22 -3 -46l-17 -129q-18 -131 -108 -202t-213 -71h-334q-115 0 -185 45z" />
<glyph unicode="t" horiz-adv-x="823" d="M100 913l17 123h188l43 297l166 23l-45 -320h369l-17 -123h-368l-97 -686q-2 -27 -3 -53.5t20.5 -45.5t66.5 -19h269l-15 -93q-78 -41 -243 -41q-145 0 -213 51q-53 39 -54 125q0 23 4 50l101 712h-189z" />
<glyph unicode="u" horiz-adv-x="1236" d="M139 215l119 850h164l-117 -832q-2 -11 -1 -20q0 -43 29 -65q36 -26 93 -25h166q147 0 250 31l129 911h164l-150 -1065h-156l5 74q-119 -98 -297 -99h-164q-117 0 -185 58q-53 45 -53 132q0 23 4 50z" />
<glyph unicode="v" horiz-adv-x="1050" d="M125 1065h164l184 -901h12l437 901h163l-546 -1079h-183z" />
<glyph unicode="w" horiz-adv-x="1699" d="M139 1065h164l123 -901h12l371 860h201l127 -860h12l387 901h164l-498 -1079h-186l-125 888h-8l-385 -888h-189z" />
<glyph unicode="x" horiz-adv-x="1001" d="M-45 0l465 567l-281 498h183l208 -379l304 379h172l-412 -502l313 -563h-172l-248 442l-360 -442h-172z" />
<glyph unicode="y" horiz-adv-x="1044" d="M123 1065h164l209 -838h6l407 838h168l-760 -1499h-155l231 450z" />
<glyph unicode="z" horiz-adv-x="1052" d="M27 0l14 102l737 826h-618l18 137h811l-16 -121l-721 -809h633l-19 -135h-839z" />
<glyph unicode="{" horiz-adv-x="753" d="M117 -348l121 858l-76 125l110 127l103 721q12 74 98 86h397l-18 -125h-326l-100 -711l-90 -92l67 -78l-124 -874h325l-16 -123h-375q-96 0 -96 69v17z" />
<glyph unicode="|" horiz-adv-x="944" d="M266 -442l273 1941h137l-273 -1941h-137z" />
<glyph unicode="}" horiz-adv-x="753" d="M-150 -434l17 123h323l125 874l88 78l-65 92l100 711h-325l18 125h397q76 -10 76 -72q0 -2 -1 -7t-1 -7l-102 -721l73 -127l-108 -125l-121 -858q-10 -86 -121 -86h-373z" />
<glyph unicode="~" horiz-adv-x="1224" d="M117 559q51 209 209 209q68 0 297 -28.5t295 -28.5q16 0 28 1t20.5 6t13.5 9t9 11t6 12.5t4 14.5t5 13l106 -22q-18 -100 -64.5 -151.5t-132.5 -51.5q-70 0 -293 29.5t-290 29.5q-45 0 -64.5 -14t-38.5 -53z" />
<glyph unicode="&#xa1;" horiz-adv-x="610" d="M121 -315l166 1044h147l-129 -1044h-184zM283 895l28 207h201l-29 -207h-200z" />
<glyph unicode="&#xa2;" horiz-adv-x="1036" d="M104 346l54 381q53 362 430 363h26l31 210h137l-30 -210h86q121 0 196 -48l-12 -92h-496q-86 0 -137 -51t-61 -139l-62 -432q-5 -35 -5 -64q0 -66 27 -100q38 -49 150 -49h465l-12 -90q-78 -49 -229 -50h-66l-29 -208h-137l29 208h-17q-197 0 -280 88q-64 67 -64 196 q0 40 6 87z" />
<glyph unicode="&#xa3;" horiz-adv-x="1105" d="M78 0l18 135h180l78 545h-168l17 125h168l53 375q37 262 397 262q156 0 301 -31l-14 -102h-397q-37 0 -73 -31t-46 -94l-53 -379h335l-16 -125h-336l-78 -545h572l-58 -135h-880z" />
<glyph unicode="&#xa4;" horiz-adv-x="1286" d="M78 477l18 135h191l26 183h-190l18 137h191l4 24q33 242 157.5 364t362.5 122h227q172 0 228 -53l-15 -99h-469q-160 0 -227.5 -86t-91.5 -256l-2 -16h567l-24 -137h-562l-26 -183h522l-29 -135h-512l-2 -8q-8 -59 -7 -108q0 -93 28 -149q43 -85 203 -85h469l-15 -98 q-70 -53 -239 -54h-228q-238 0 -328 122q-66 88 -66 239q0 58 9 125l2 16h-190z" />
<glyph unicode="&#xa5;" horiz-adv-x="1224" d="M106 481l19 137h438l2 7l-377 792h181l305 -657l491 657h183l-607 -792l-2 -7h447l-19 -137h-446l-68 -481h-176l68 481h-439z" />
<glyph unicode="&#xa6;" horiz-adv-x="944" d="M307 -283l113 797h121l-113 -797h-121zM446 702l113 797h121l-113 -797h-121z" />
<glyph unicode="&#xa7;" horiz-adv-x="1341" d="M127 -397l18 123h582q152 0 172 149l31 223h-506q-113 0 -179.5 56.5t-66.5 160.5q0 16 4 50l107 770q16 123 114.5 199.5t217.5 76.5h571l18 -31l-16 -118h-561q-170 0 -191 -144l-30 -217h520q106 0 168.5 -60.5t62.5 -162.5q0 -14 -4 -47l-106 -760 q-16 -127 -106.5 -211t-217.5 -84h-579zM338 350q0 -102 135 -102h479l52 375q2 10 2 28q0 100 -148 101h-467l-51 -373q-2 -11 -2 -29z" />
<glyph unicode="&#xa8;" horiz-adv-x="835" d="M260 1235l35 225h176l-35 -225h-176zM639 1235l35 225h178l-35 -225h-178z" />
<glyph unicode="&#xa9;" horiz-adv-x="1871" d="M160 510q0 115 20.5 236.5t78.5 262t146.5 249t240 181t343.5 72.5h244q162 0 280.5 -50t184 -138t95.5 -189.5t30 -222.5q0 -127 -23.5 -254t-84 -261t-151.5 -235.5t-238.5 -166t-332.5 -64.5h-237q-174 0 -296 46.5t-185.5 132.5t-89 182t-25.5 219zM283 500 q0 -100 20.5 -179t70.5 -148t145 -105.5t233 -36.5h256q121 0 221 32.5t168.5 86t123 128t85 151.5t50 165t27 159.5t7.5 141.5q0 106 -24 193.5t-77 163t-152.5 118.5t-238.5 43h-231q-133 0 -241 -42t-177.5 -107.5t-121.5 -155.5t-78.5 -173t-42 -177t-19.5 -150.5 t-4 -107.5zM494 473q0 47 6 100l41 285q57 401 420 402h237q150 0 203 -37l-15 -101h-454q-117 0 -169 -68.5t-71 -201.5l-37 -272q-8 -70 -8 -97q0 -82 39 -126t133 -44h455l-12 -86q-66 -51 -199 -51h-254q-315 0 -315 297z" />
<glyph unicode="&#xaa;" horiz-adv-x="878" d="M143 541l19 131h610l-18 -131h-611zM231 971l9 65q12 94 79.5 141.5t155.5 47.5h211l12 90q6 39 -10 52t-65 13h-291l12 86q57 35 170 35h137q90 0 142 -40q41 -32 41 -101q0 -17 -3 -35l-38 -278q-12 -88 -21 -232h-119v51q-66 -66 -159 -65h-107q-78 0 -122 48 q-36 39 -36 95q0 13 2 27zM362 981q-1 -7 0 -13q0 -54 62 -55h125q94 0 106 88l17 117h-195q-51 0 -75.5 -17.5t-30.5 -62.5z" />
<glyph unicode="&#xab;" horiz-adv-x="1165" d="M141 506l17 106l458 342l68 -88l-348 -299l260 -340l-92 -82zM633 506l16 106l461 342l68 -88l-355 -299l264 -340l-90 -82z" />
<glyph unicode="&#xac;" horiz-adv-x="1626" d="M152 674v135h1323v-612h-158v477h-1165z" />
<glyph unicode="&#xad;" horiz-adv-x="638" d="M57 516l23 154h569l-22 -154h-570z" />
<glyph unicode="&#xae;" horiz-adv-x="1871" d="M127 510q0 102 18 246q18 133 77 261t155 241.5t246.5 183t332.5 69.5h244q162 0 280.5 -50t184.5 -138t95.5 -189.5t29.5 -222.5q0 -127 -23.5 -254t-84 -261t-151.5 -235.5t-238.5 -166t-331.5 -64.5h-238q-174 0 -296 46.5t-185.5 132.5t-89 182t-25.5 219zM250 500 q0 -100 20.5 -179t70.5 -148t145.5 -105.5t232.5 -36.5h256q121 0 221 32.5t169 86t123 128t85 151.5t50.5 165t26.5 159.5t7 141.5q0 106 -23.5 193.5t-77 163t-152.5 118.5t-239 43h-231q-133 0 -240.5 -42t-177.5 -107.5t-122 -155.5t-78.5 -173t-42 -177t-19.5 -150.5 t-4 -107.5zM532 199l144 1032h475q225 0 225 -193q0 -18 -4 -55l-18 -131q-14 -109 -93 -174.5t-184 -65.5h-22l233 -413h-158l-227 413h-180l-57 -413h-134zM739 723h312q84 0 122.5 38t51.5 120l14 90q4 29 4 37q0 55 -33.5 78.5t-111.5 23.5h-305z" />
<glyph unicode="&#xaf;" horiz-adv-x="831" d="M233 1296l19 129h635l-19 -129h-635z" />
<glyph unicode="&#xb0;" horiz-adv-x="720" d="M205 1233q0 109 84 193.5t194 84.5q104 0 159.5 -54t55.5 -142q0 -115 -86 -196t-196 -81q-98 0 -154.5 57.5t-56.5 137.5zM315 1253q0 -51 32 -85.5t83 -34.5q66 0 112 50t46 115q0 49 -30 84t-89 35q-66 0 -110 -49t-44 -115z" />
<glyph unicode="&#xb1;" d="M20 0l19 133h999l-18 -133h-1000zM117 666l18 131h430l60 420h133l-60 -420h428l-18 -131h-428l-53 -392h-133l53 392h-430z" />
<glyph unicode="&#xb2;" horiz-adv-x="1024" />
<glyph unicode="&#xb3;" horiz-adv-x="1024" />
<glyph unicode="&#xb4;" horiz-adv-x="661" d="M244 1202l256 352l172 -45l-293 -307h-135z" />
<glyph unicode="&#xb5;" horiz-adv-x="1245" d="M96 -436l209 1489l166 12l-115 -813q20 -133 179 -133h96q94 0 159.5 31.5t75.5 101.5l113 801l166 12l-119 -840l8 -225h-157v80q-123 -104 -289 -105h-76q-55 0 -110.5 26t-79.5 81l-62 -518h-164z" />
<glyph unicode="&#xb6;" horiz-adv-x="1206" d="M150 500q0 37 6 78l80 571q20 143 117.5 205.5t273.5 62.5h508l4 -8l-258 -1831h-148l236 1673h-193l-133 -956h-278q-215 0 -215 205z" />
<glyph unicode="&#xb7;" horiz-adv-x="503" d="M127 621l29 206h200l-28 -206h-201z" />
<glyph unicode="&#xb8;" horiz-adv-x="735" d="M20 -344l15 96h170q39 0 62.5 4t44 24.5t20.5 57.5q0 94 -101 178h103q57 -23 98 -79t41 -105q0 -102 -80 -153.5t-188 -51.5q-81 0 -185 29z" />
<glyph unicode="&#xb9;" horiz-adv-x="1024" />
<glyph unicode="&#xba;" horiz-adv-x="878" d="M174 541l19 131h610l-19 -131h-610zM258 1049l27 188q39 262 286 262h84q218 0 218 -199q0 -29 -5 -63l-26 -188q-35 -250 -287 -250h-82q-219 0 -219 192q0 27 4 58zM389 1049q-3 -21 -2 -40q0 -41 12 -64q18 -34 82 -34h99q63 0 92.5 37t40.5 109l26 190q4 26 4 46 q0 37 -12 58q-18 32 -84 31h-100q-66 0 -92.5 -30.5t-36.5 -100.5z" />
<glyph unicode="&#xbb;" horiz-adv-x="1165" d="M6 227l363 340l-273 299l92 88l367 -342l-16 -106l-463 -361zM498 227l358 340l-266 299l92 88l365 -342l-17 -106l-461 -361z" />
<glyph unicode="&#xbc;" horiz-adv-x="1024" />
<glyph unicode="&#xbd;" horiz-adv-x="1024" />
<glyph unicode="&#xbe;" horiz-adv-x="1024" />
<glyph unicode="&#xbf;" horiz-adv-x="1116" d="M111 -63l16 126q20 133 71.5 203t178.5 99l158 34q33 6 49 12.5t33.5 30t23.5 66.5l31 225h155l-32 -241q-14 -98 -65.5 -153.5t-194.5 -86.5l-109 -25q-72 -16 -100.5 -40.5t-38.5 -102.5l-19 -129q-2 -15 -2 -28q0 -50 31 -83q39 -41 156 -41h471l-17 -108 q-117 -37 -256 -37h-221q-164 0 -252 70q-71 56 -71 158q0 25 4 51zM672 922l26 182h201l-27 -182h-200z" />
<glyph unicode="&#xc0;" horiz-adv-x="1339" d="M-18 0l704 1430h232l321 -1430h-170l-90 406h-631l-194 -406h-172zM412 541h536l-157 733l-5 45h-6l-16 -45zM451 1841l172 45l247 -356h-139z" />
<glyph unicode="&#xc1;" horiz-adv-x="1339" d="M-18 0l704 1430h232l321 -1430h-170l-90 406h-631l-194 -406h-172zM412 541h536l-157 733l-5 45h-6l-16 -45zM725 1530l256 352l172 -45l-293 -307h-135z" />
<glyph unicode="&#xc2;" horiz-adv-x="1339" d="M-18 0l704 1430h232l321 -1430h-170l-90 406h-631l-194 -406h-172zM412 541h536l-157 733l-5 45h-6l-16 -45zM518 1530l254 323h131l174 -323h-129l-117 213l-169 -213h-144z" />
<glyph unicode="&#xc3;" horiz-adv-x="1339" d="M-18 0l704 1430h232l321 -1430h-170l-90 406h-631l-194 -406h-172zM412 541h536l-157 733l-5 45h-6l-16 -45zM442 1561q35 104 85.5 148t131.5 44q53 0 162 -28.5t162 -28.5q23 0 39 8t22.5 13t18.5 28.5t16 28.5l76 -17q-59 -193 -207 -192q-53 0 -162.5 28.5 t-164.5 28.5q-20 0 -33 -2t-23 -12.5t-14 -13.5t-14.5 -23.5t-12.5 -26.5z" />
<glyph unicode="&#xc4;" horiz-adv-x="1339" d="M-18 0l704 1430h232l321 -1430h-170l-90 406h-631l-194 -406h-172zM412 541h536l-157 733l-5 45h-6l-16 -45zM520 1563l35 225h176l-35 -225h-176zM899 1563l35 225h178l-35 -225h-178z" />
<glyph unicode="&#xc5;" horiz-adv-x="1339" d="M-18 0l704 1430h232l321 -1430h-170l-90 406h-631l-194 -406h-172zM412 541h536l-157 733l-5 45h-6l-16 -45zM633 1675q0 94 71.5 168t167.5 74q88 0 134.5 -47t46.5 -121q0 -102 -73 -173t-167 -71q-84 0 -132 49t-48 121zM733 1692q0 -43 25.5 -71t66.5 -28q51 0 91 41 t40 97q0 43 -23.5 72.5t-72.5 29.5q-55 0 -91 -43t-36 -98z" />
<glyph unicode="&#xc6;" horiz-adv-x="2019" d="M-2 0l858 1417h1212l-18 -135h-795l-67 -481h579l-18 -137h-580l-75 -529h794l-18 -135h-967l58 406h-558l-247 -406h-158zM483 541h496l104 735h-153z" />
<glyph unicode="&#xc7;" horiz-adv-x="1236" d="M154 461l69 495q33 242 158 364t362 122h326q172 0 225 -53l-12 -99h-567q-160 0 -227.5 -86t-92.5 -256l-67 -479q-8 -68 -9 -125q0 -28 3 -53q6 -76 62 -120t167 -44h567l-14 -98q-70 -53 -242 -54h-59q76 -70 76 -143q0 -102 -80 -153.5t-189 -51.5q-80 0 -184 29 l14 96h170q39 0 62.5 4t44 24.5t20.5 57.5q0 68 -59 137h-141q-238 0 -328 122q-65 88 -65 238q0 59 10 126z" />
<glyph unicode="&#xc8;" horiz-adv-x="1261" d="M145 0l199 1417h967l-19 -135h-794l-66 -465h627l-19 -137h-626l-78 -545h794l-18 -135h-967zM528 1841l172 45l248 -356h-139z" />
<glyph unicode="&#xc9;" horiz-adv-x="1261" d="M145 0l199 1417h967l-19 -135h-794l-66 -465h627l-19 -137h-626l-78 -545h794l-18 -135h-967zM717 1530l256 352l172 -45l-293 -307h-135z" />
<glyph unicode="&#xca;" horiz-adv-x="1261" d="M145 0l199 1417h967l-19 -135h-794l-66 -465h627l-19 -137h-626l-78 -545h794l-18 -135h-967zM559 1530l254 323h131l174 -323h-129l-117 213l-170 -213h-143z" />
<glyph unicode="&#xcb;" horiz-adv-x="1261" d="M145 0l199 1417h967l-19 -135h-794l-66 -465h627l-19 -137h-626l-78 -545h794l-18 -135h-967zM580 1563l34 225h177l-35 -225h-176zM958 1563l35 225h178l-34 -225h-179z" />
<glyph unicode="&#xcc;" horiz-adv-x="548" d="M74 1841l172 45l248 -356h-140zM135 0l199 1417h172l-199 -1417h-172z" />
<glyph unicode="&#xcd;" horiz-adv-x="548" d="M135 0l199 1417h172l-199 -1417h-172zM362 1530l256 352l173 -45l-293 -307h-136z" />
<glyph unicode="&#xce;" horiz-adv-x="548" d="M135 0l199 1417h172l-199 -1417h-172zM147 1530l254 323h131l175 -323h-129l-117 213l-170 -213h-144z" />
<glyph unicode="&#xcf;" horiz-adv-x="548" d="M135 0l199 1417h172l-199 -1417h-172zM145 1563l35 225h176l-34 -225h-177zM524 1563l35 225h178l-35 -225h-178z" />
<glyph unicode="&#xd0;" horiz-adv-x="1413" d="M76 670l16 127h166l86 620h621q227 0 329 -106q78 -81 78 -233q0 -49 -8 -105l-74 -516q-35 -244 -166 -350.5t-362 -106.5h-617l95 670h-164zM334 133h434q166 0 247 77t105 253l68 491q6 46 6 86q0 108 -45 165q-61 79 -221 79h-430l-70 -487h373l-17 -127h-374z" />
<glyph unicode="&#xd1;" horiz-adv-x="1445" d="M88 0l201 1417h186l502 -1011l78 -193h4l41 420l110 784h148l-201 -1417h-156l-544 1087l-60 173l-4 -3l-33 -370l-124 -887h-148zM510 1561q35 104 85 148t132 44q55 0 161.5 -28.5t162.5 -28.5q23 0 39 8t22 13t18.5 28.5t16.5 28.5l76 -17q-59 -193 -207 -192 q-53 0 -163 28.5t-165 28.5q-20 0 -32.5 -2t-22.5 -12.5t-14.5 -13.5t-14.5 -23.5t-12 -26.5z" />
<glyph unicode="&#xd2;" horiz-adv-x="1458" d="M150 399l88 627q31 211 162.5 313.5t347.5 102.5h270q213 0 317 -103q81 -79 81 -223q0 -42 -7 -90l-88 -627q-31 -211 -164 -317.5t-346 -106.5h-270q-213 0 -318 107q-81 82 -80 227q0 42 7 90zM322 397q-5 -32 -5 -61q0 -88 42 -146q56 -76 186 -75h303 q129 0 205.5 75.5t95.5 206.5l88 623q5 32 5 61q0 88 -43 146q-56 76 -185 76h-303q-129 0 -206 -77t-95 -206zM545 1841l172 45l248 -356h-140z" />
<glyph unicode="&#xd3;" horiz-adv-x="1458" d="M150 399l88 627q31 211 162.5 313.5t347.5 102.5h270q213 0 317 -103q81 -79 81 -223q0 -42 -7 -90l-88 -627q-31 -211 -164 -317.5t-346 -106.5h-270q-213 0 -318 107q-81 82 -80 227q0 42 7 90zM322 397q-5 -32 -5 -61q0 -88 42 -146q56 -76 186 -75h303 q129 0 205.5 75.5t95.5 206.5l88 623q5 32 5 61q0 88 -43 146q-56 76 -185 76h-303q-129 0 -206 -77t-95 -206zM805 1530l256 352l172 -45l-293 -307h-135z" />
<glyph unicode="&#xd4;" horiz-adv-x="1458" d="M150 399l88 627q31 211 162.5 313.5t347.5 102.5h270q213 0 317 -103q81 -79 81 -223q0 -42 -7 -90l-88 -627q-31 -211 -164 -317.5t-346 -106.5h-270q-213 0 -318 107q-81 82 -80 227q0 42 7 90zM322 397q-5 -32 -5 -61q0 -88 42 -146q56 -76 186 -75h303 q129 0 205.5 75.5t95.5 206.5l88 623q5 32 5 61q0 88 -43 146q-56 76 -185 76h-303q-129 0 -206 -77t-95 -206zM588 1530l254 323h131l174 -323h-129l-117 213l-170 -213h-143z" />
<glyph unicode="&#xd5;" horiz-adv-x="1458" d="M150 399l88 627q31 211 162.5 313.5t347.5 102.5h270q213 0 317 -103q81 -79 81 -223q0 -42 -7 -90l-88 -627q-31 -211 -164 -317.5t-346 -106.5h-270q-213 0 -318 107q-81 82 -80 227q0 42 7 90zM322 397q-5 -32 -5 -61q0 -88 42 -146q56 -76 186 -75h303 q129 0 205.5 75.5t95.5 206.5l88 623q5 32 5 61q0 88 -43 146q-56 76 -185 76h-303q-129 0 -206 -77t-95 -206zM514 1561q35 104 85 148t132 44q55 0 161.5 -28.5t162.5 -28.5q23 0 39 8t22 13t18.5 28.5t16.5 28.5l76 -17q-59 -193 -207 -192q-53 0 -162.5 28.5 t-165.5 28.5q-20 0 -32.5 -2t-22.5 -12.5t-14.5 -13.5t-14.5 -23.5t-12 -26.5z" />
<glyph unicode="&#xd6;" horiz-adv-x="1458" d="M150 399l88 627q31 211 162.5 313.5t347.5 102.5h270q213 0 317 -103q81 -79 81 -223q0 -42 -7 -90l-88 -627q-31 -211 -164 -317.5t-346 -106.5h-270q-213 0 -318 107q-81 82 -80 227q0 42 7 90zM322 397q-5 -32 -5 -61q0 -88 42 -146q56 -76 186 -75h303 q129 0 205.5 75.5t95.5 206.5l88 623q5 32 5 61q0 88 -43 146q-56 76 -185 76h-303q-129 0 -206 -77t-95 -206zM588 1563l35 225h176l-35 -225h-176zM967 1563l34 225h179l-35 -225h-178z" />
<glyph unicode="&#xd7;" d="M86 217l418 367l-314 366l115 101l316 -365l417 365l86 -101l-415 -366l311 -367l-115 -100l-315 364l-418 -364z" />
<glyph unicode="&#xd8;" horiz-adv-x="1458" d="M145 313q0 39 7 86l88 627q31 211 164 313.5t346 102.5h270q35 0 100 -8l82 157l101 -41l-74 -141q188 -74 188 -299q0 -37 -6 -84l-88 -627q-31 -211 -164 -317.5t-346 -106.5h-270q-43 0 -64 2l-104 -200l-101 41l95 180q-224 67 -224 315zM317 338q0 -158 121 -207 l613 1169q-12 2 -35 3h-303q-129 0 -206 -76t-95 -207l-88 -623q0 -2 -3.5 -25.5t-3.5 -33.5zM551 115h299q129 0 206 75.5t95 206.5l88 623q4 25 4 67q0 127 -88 181z" />
<glyph unicode="&#xd9;" horiz-adv-x="1470" d="M186 391l146 1026h172l-144 -1018q-5 -32 -4 -61q0 -87 41 -144q55 -77 185 -77h247q129 0 207 75.5t97 206.5l143 1018h166l-144 -1018q-31 -211 -159.5 -317.5t-339.5 -106.5h-230q-207 0 -310 104q-80 80 -80 222q0 42 7 90zM569 1841l172 45l248 -356h-139z" />
<glyph unicode="&#xda;" horiz-adv-x="1470" d="M186 391l146 1026h172l-144 -1018q-5 -32 -4 -61q0 -87 41 -144q55 -77 185 -77h247q129 0 207 75.5t97 206.5l143 1018h166l-144 -1018q-31 -211 -159.5 -317.5t-339.5 -106.5h-230q-207 0 -310 104q-80 80 -80 222q0 42 7 90zM819 1530l256 352l172 -45l-293 -307h-135 z" />
<glyph unicode="&#xdb;" horiz-adv-x="1470" d="M186 391l146 1026h172l-144 -1018q-5 -32 -4 -61q0 -87 41 -144q55 -77 185 -77h247q129 0 207 75.5t97 206.5l143 1018h166l-144 -1018q-31 -211 -159.5 -317.5t-339.5 -106.5h-230q-207 0 -310 104q-80 80 -80 222q0 42 7 90zM625 1530l254 323h131l174 -323h-129 l-117 213l-170 -213h-143z" />
<glyph unicode="&#xdc;" horiz-adv-x="1470" d="M186 391l146 1026h172l-144 -1018q-5 -32 -4 -61q0 -87 41 -144q55 -77 185 -77h247q129 0 207 75.5t97 206.5l143 1018h166l-144 -1018q-31 -211 -159.5 -317.5t-339.5 -106.5h-230q-207 0 -310 104q-80 80 -80 222q0 42 7 90zM618 1563l35 225h176l-34 -225h-177z M997 1563l35 225h178l-34 -225h-179z" />
<glyph unicode="&#xdd;" horiz-adv-x="1224" d="M133 1417h189l305 -657l491 657h174l-608 -792l-88 -625h-176l88 625zM639 1530l256 352l172 -45l-293 -307h-135z" />
<glyph unicode="&#xde;" horiz-adv-x="1359" d="M143 0l199 1417h172l-35 -248h506q322 0 322 -237q0 -31 -7 -62l-32 -237q-23 -164 -129.5 -232.5t-282.5 -68.5h-494l-47 -332h-172zM381 467h485q117 0 169 44t69 159q0 6 14.5 97t14.5 132q0 84 -53.5 109.5t-149.5 25.5h-469z" />
<glyph unicode="&#xdf;" horiz-adv-x="1382" d="M141 913l17 121h219l14 107q27 186 146.5 273t310.5 87h88q336 0 336 -301l-21 -145q-14 -111 -60 -177.5t-149 -99.5l-2 -10q96 -16 153.5 -72.5t57.5 -142.5l-43 -305q-18 -125 -116.5 -199t-227.5 -74h-125q-113 0 -184 45l12 99h291q170 0 186 123l39 288 q0 156 -194 156h-152l21 143q18 0 63 -1t64.5 -1t54.5 4.5t53.5 15.5t41 30.5t34.5 51.5t18 75l29 192q0 168 -213 168h-131q-94 0 -150.5 -60.5t-68.5 -158.5l-203 -1464l-172 -62l180 1294h-217z" />
<glyph unicode="&#xe0;" horiz-adv-x="1159" d="M92 233l12 107q16 143 110.5 215t229.5 72h383l31 219q0 96 -156 96h-438l15 100q84 47 258 48h206q281 0 281 -230l-80 -571q-12 -92 -12 -244v-45h-148l-2 102h-6q-84 -127 -254 -127h-168q-117 0 -189.5 72.5t-72.5 185.5zM258 248q0 -137 150 -137h163q76 0 136.5 44 t72.5 138l31 211h-348q-90 0 -133 -34t-58 -124zM322 1513l172 46l247 -357h-139z" />
<glyph unicode="&#xe1;" horiz-adv-x="1159" d="M92 233l12 107q16 143 110.5 215t229.5 72h383l31 219q0 96 -156 96h-438l15 100q84 47 258 48h206q281 0 281 -230l-80 -571q-12 -92 -12 -244v-45h-148l-2 102h-6q-84 -127 -254 -127h-168q-117 0 -189.5 72.5t-72.5 185.5zM258 248q0 -137 150 -137h163q76 0 136.5 44 t72.5 138l31 211h-348q-90 0 -133 -34t-58 -124zM541 1202l256 352l172 -45l-293 -307h-135z" />
<glyph unicode="&#xe2;" horiz-adv-x="1159" d="M92 233l12 107q16 143 110.5 215t229.5 72h383l31 219q0 96 -156 96h-438l15 100q84 47 258 48h206q281 0 281 -230l-80 -571q-12 -92 -12 -244v-45h-148l-2 102h-6q-84 -127 -254 -127h-168q-117 0 -189.5 72.5t-72.5 185.5zM258 248q0 -137 150 -137h163q76 0 136.5 44 t72.5 138l31 211h-348q-90 0 -133 -34t-58 -124zM350 1202l254 324h131l174 -324h-129l-116 213l-170 -213h-144z" />
<glyph unicode="&#xe3;" horiz-adv-x="1159" d="M92 233l12 107q16 143 110.5 215t229.5 72h383l31 219q0 96 -156 96h-438l15 100q84 47 258 48h206q281 0 281 -230l-80 -571q-12 -92 -12 -244v-45h-148l-2 102h-6q-84 -127 -254 -127h-168q-117 0 -189.5 72.5t-72.5 185.5zM258 248q0 -137 150 -137h163q76 0 136.5 44 t72.5 138l31 211h-348q-90 0 -133 -34t-58 -124zM311 1233q35 104 85 148t132 44q53 0 162 -28.5t162 -28.5q23 0 39 8t22.5 13.5t18.5 29t16 27.5l76 -16q-59 -193 -207 -193q-53 0 -162.5 28.5t-165.5 28.5q-20 0 -32.5 -2t-22.5 -12t-14 -13t-14.5 -23.5t-12.5 -26.5z " />
<glyph unicode="&#xe4;" horiz-adv-x="1159" d="M92 233l12 107q16 143 110.5 215t229.5 72h383l31 219q0 96 -156 96h-438l15 100q84 47 258 48h206q281 0 281 -230l-80 -571q-12 -92 -12 -244v-45h-148l-2 102h-6q-84 -127 -254 -127h-168q-117 0 -189.5 72.5t-72.5 185.5zM258 248q0 -137 150 -137h163q76 0 136.5 44 t72.5 138l31 211h-348q-90 0 -133 -34t-58 -124zM387 1235l35 225h176l-35 -225h-176zM766 1235l35 225h178l-35 -225h-178z" />
<glyph unicode="&#xe5;" horiz-adv-x="1159" d="M92 233l12 107q16 143 110.5 215t229.5 72h383l31 219q0 96 -156 96h-438l15 100q84 47 258 48h206q281 0 281 -230l-80 -571q-12 -92 -12 -244v-45h-148l-2 102h-6q-84 -127 -254 -127h-168q-117 0 -189.5 72.5t-72.5 185.5zM258 248q0 -137 150 -137h163q76 0 136.5 44 t72.5 138l31 211h-348q-90 0 -133 -34t-58 -124zM489 1358q0 94 72 167.5t168 73.5q88 0 134 -47t46 -120q0 -102 -72.5 -173t-166.5 -71q-84 0 -132.5 49t-48.5 121zM590 1374q0 -43 25.5 -70.5t66.5 -27.5q51 0 91 41t40 96q0 43 -23.5 73t-72.5 30q-55 0 -91 -43.5 t-36 -98.5z" />
<glyph unicode="&#xe6;" horiz-adv-x="1830" d="M94 217l19 123q20 145 109 216t222 71h408l27 180q3 20 3 36q0 51 -29 71q-38 28 -126 28h-459l15 100q82 47 258 48h227q166 0 238 -103q125 102 307 103h110q342 0 343 -284q0 -39 -7 -83l-26 -195l-148 -24h-586l-28 -215q-3 -18 -3 -34q0 -59 36 -95q45 -45 161 -45 h477l-10 -78q-82 -61 -223 -62h-279q-207 0 -266 148q-92 -147 -315 -148h-213q-121 0 -189 66q-56 54 -55 139q-1 18 2 37zM262 248q-2 -15 -2 -29q0 -108 129 -108h234q68 0 119 44t61 117l33 232h-375q-88 0 -129 -33t-56 -121zM1016 627h569l21 139q3 25 3 46 q0 68 -35 100q-46 42 -153 42h-145q-115 0 -171 -55t-75 -170z" />
<glyph unicode="&#xe7;" horiz-adv-x="1036" d="M127 274l57 424q27 190 130.5 291t312.5 101h198q123 0 197 -48l-14 -92h-404q-117 0 -178 -57t-78 -182q-43 -276 -57 -414q0 -111 61.5 -146.5t163.5 -35.5h375l-12 -90q-76 -45 -211 -50q76 -70 75 -143q0 -102 -79.5 -153.5t-188.5 -51.5q-80 0 -184 29l14 96h170 q39 0 62.5 4t44 24.5t20.5 57.5q0 68 -59 137h-74q-342 0 -342 299z" />
<glyph unicode="&#xe8;" horiz-adv-x="1163" d="M125 258l55 428q53 403 453 404h90q340 0 340 -299l-33 -263l-145 -24h-566l-28 -217q0 -172 205 -172h467l-11 -78q-82 -61 -225 -62h-278q-137 0 -230.5 74t-93.5 209zM336 627h551l20 184q0 80 -46 111.5t-142 31.5h-125q-115 0 -171 -55t-73 -170zM373 1513l172 46 l248 -357h-140z" />
<glyph unicode="&#xe9;" horiz-adv-x="1163" d="M125 258l55 428q53 403 453 404h90q340 0 340 -299l-33 -263l-145 -24h-566l-28 -217q0 -172 205 -172h467l-11 -78q-82 -61 -225 -62h-278q-137 0 -230.5 74t-93.5 209zM336 627h551l20 184q0 80 -46 111.5t-142 31.5h-125q-115 0 -171 -55t-73 -170zM610 1202l256 352 l172 -45l-293 -307h-135z" />
<glyph unicode="&#xea;" horiz-adv-x="1163" d="M125 258l55 428q53 403 453 404h90q340 0 340 -299l-33 -263l-145 -24h-566l-28 -217q0 -172 205 -172h467l-11 -78q-82 -61 -225 -62h-278q-137 0 -230.5 74t-93.5 209zM336 627h551l20 184q0 80 -46 111.5t-142 31.5h-125q-115 0 -171 -55t-73 -170zM418 1202l254 324 h131l174 -324h-129l-117 213l-170 -213h-143z" />
<glyph unicode="&#xeb;" horiz-adv-x="1163" d="M125 258l55 428q53 403 453 404h90q340 0 340 -299l-33 -263l-145 -24h-566l-28 -217q0 -172 205 -172h467l-11 -78q-82 -61 -225 -62h-278q-137 0 -230.5 74t-93.5 209zM336 627h551l20 184q0 80 -46 111.5t-142 31.5h-125q-115 0 -171 -55t-73 -170zM412 1235l34 225 h177l-35 -225h-176zM791 1235l34 225h179l-35 -225h-178z" />
<glyph unicode="&#xec;" horiz-adv-x="532" d="M12 1513l172 46l248 -357h-139zM115 0l149 1065h164l-149 -1065h-164z" />
<glyph unicode="&#xed;" horiz-adv-x="532" d="M205 0l149 1065h164l-149 -1065h-164zM383 1202l256 352l172 -45l-293 -307h-135z" />
<glyph unicode="&#xee;" horiz-adv-x="532" d="M70 1202l254 324h131l174 -324h-129l-117 213l-170 -213h-143zM115 0l149 1065h164l-149 -1065h-164z" />
<glyph unicode="&#xef;" horiz-adv-x="532" d="M92 1235l35 225h176l-35 -225h-176zM115 0l149 1065h164l-149 -1065h-164zM471 1235l35 225h178l-35 -225h-178z" />
<glyph unicode="&#xf0;" horiz-adv-x="1179" d="M121 227q0 45 6 88l47 326q20 145 116.5 228t244.5 83h133q188 0 260 -90q8 57 8 86q0 106 -64 189l-213 -107l-41 103l164 81q-100 63 -211 64h-270l14 92q88 47 275 47q211 0 358 -117l201 103l41 -103l-166 -83q76 -109 76 -256q0 -29 -8 -91l-76 -551 q-27 -180 -125 -262t-281 -82h-204q-285 0 -285 252zM285 236q0 -74 36.5 -99.5t114.5 -25.5h217q90 0 135.5 43t57.5 135l69 493q-100 31 -231 31h-156q-70 0 -124 -41t-64 -108l-51 -365q-4 -40 -4 -63z" />
<glyph unicode="&#xf1;" horiz-adv-x="1236" d="M117 0l149 1065h162l-10 -74q119 98 297 99h143q238 0 238 -213l-123 -877h-164l119 854q0 53 -32 70.5t-91 17.5h-187q-61 0 -125.5 -19.5t-89.5 -45.5l-122 -877h-164zM385 1233q35 104 85 148t132 44q53 0 161.5 -28.5t162.5 -28.5q23 0 39 8t22 13.5t18.5 29 t16.5 27.5l76 -16q-59 -193 -207 -193q-53 0 -163 28.5t-165 28.5q-20 0 -32.5 -2t-22.5 -12t-14.5 -13t-14.5 -23.5t-12 -26.5z" />
<glyph unicode="&#xf2;" horiz-adv-x="1204" d="M106 276l68 469q49 344 387 345h227q162 0 234 -80t72 -236l-62 -442q-49 -356 -373 -357h-231q-322 0 -322 301zM270 272q0 -166 150 -166h260q156 0 184 195l70 487q0 170 -135 170h-283q-150 0 -176 -194zM373 1513l172 46l248 -357h-140z" />
<glyph unicode="&#xf3;" horiz-adv-x="1204" d="M106 276l68 469q49 344 387 345h227q162 0 234 -80t72 -236l-62 -442q-49 -356 -373 -357h-231q-322 0 -322 301zM270 272q0 -166 150 -166h260q156 0 184 195l70 487q0 170 -135 170h-283q-150 0 -176 -194zM608 1202l256 352l172 -45l-293 -307h-135z" />
<glyph unicode="&#xf4;" horiz-adv-x="1204" d="M106 276l68 469q49 344 387 345h227q162 0 234 -80t72 -236l-62 -442q-49 -356 -373 -357h-231q-322 0 -322 301zM270 272q0 -166 150 -166h260q156 0 184 195l70 487q0 170 -135 170h-283q-150 0 -176 -194zM410 1202l254 324h131l174 -324h-129l-117 213l-170 -213 h-143z" />
<glyph unicode="&#xf5;" horiz-adv-x="1204" d="M106 276l68 469q49 344 387 345h227q162 0 234 -80t72 -236l-62 -442q-49 -356 -373 -357h-231q-322 0 -322 301zM270 272q0 -166 150 -166h260q156 0 184 195l70 487q0 170 -135 170h-283q-150 0 -176 -194zM332 1233q35 104 85 148t132 44q53 0 161.5 -28.5 t161.5 -28.5q23 0 39.5 8t22.5 13.5t18.5 29t16.5 27.5l75 -16q-59 -193 -206 -193q-53 0 -163 28.5t-165 28.5q-20 0 -32.5 -2t-23 -12t-14.5 -13t-14 -23.5t-12 -26.5z" />
<glyph unicode="&#xf6;" horiz-adv-x="1204" d="M106 276l68 469q49 344 387 345h227q162 0 234 -80t72 -236l-62 -442q-49 -356 -373 -357h-231q-322 0 -322 301zM270 272q0 -166 150 -166h260q156 0 184 195l70 487q0 170 -135 170h-283q-150 0 -176 -194zM410 1235l34 225h177l-35 -225h-176zM788 1235l35 225h178 l-34 -225h-179z" />
<glyph unicode="&#xf7;" d="M88 532l18 134h1016l-18 -134h-1016zM440 168l29 207h209l-29 -207h-209zM532 817l29 207h209l-29 -207h-209z" />
<glyph unicode="&#xf8;" horiz-adv-x="1204" d="M2 -66l143 166q-38 63 -37 152q0 32 5 67l59 426q49 344 412 345h204q109 0 175 -39l137 159l102 -63l-151 -176q43 -65 43 -161q0 -36 -7 -77l-55 -401q-27 -174 -122 -265.5t-279 -91.5h-205q-119 0 -195 43l-127 -147zM270 246l598 696q-29 16 -69 16h-267 q-84 0 -133 -53t-61 -141l-64 -461q-4 -20 -4 -57zM326 129q35 -23 86 -23h266q80 0 127 56.5t59 138.5l64 463q4 18 3 39q0 14 -1 28z" />
<glyph unicode="&#xf9;" horiz-adv-x="1236" d="M139 215l119 850h164l-117 -832q-2 -11 -1 -20q0 -43 29 -65q36 -26 93 -25h166q147 0 250 31l129 911h164l-150 -1065h-156l5 74q-119 -98 -297 -99h-164q-117 0 -185 58q-53 45 -53 132q0 23 4 50zM401 1513l172 46l248 -357h-139z" />
<glyph unicode="&#xfa;" horiz-adv-x="1236" d="M139 215l119 850h164l-117 -832q-2 -11 -1 -20q0 -43 29 -65q36 -26 93 -25h166q147 0 250 31l129 911h164l-150 -1065h-156l5 74q-119 -98 -297 -99h-164q-117 0 -185 58q-53 45 -53 132q0 23 4 50zM627 1202l256 352l172 -45l-293 -307h-135z" />
<glyph unicode="&#xfb;" horiz-adv-x="1236" d="M139 215l119 850h164l-117 -832q-2 -11 -1 -20q0 -43 29 -65q36 -26 93 -25h166q147 0 250 31l129 911h164l-150 -1065h-156l5 74q-119 -98 -297 -99h-164q-117 0 -185 58q-53 45 -53 132q0 23 4 50zM440 1202l254 324h131l174 -324h-129l-116 213l-170 -213h-144z" />
<glyph unicode="&#xfc;" horiz-adv-x="1236" d="M139 215l119 850h164l-117 -832q-2 -11 -1 -20q0 -43 29 -65q36 -26 93 -25h166q147 0 250 31l129 911h164l-150 -1065h-156l5 74q-119 -98 -297 -99h-164q-117 0 -185 58q-53 45 -53 132q0 23 4 50zM465 1235l35 225h176l-35 -225h-176zM844 1235l35 225h178l-35 -225 h-178z" />
<glyph unicode="&#xfd;" horiz-adv-x="1044" d="M123 1065h164l209 -838h6l407 838h168l-760 -1499h-155l231 450zM526 1202l256 352l172 -45l-292 -307h-136z" />
<glyph unicode="&#xfe;" horiz-adv-x="1204" d="M55 -434l271 1933h163l-71 -508q113 98 289 99h147q164 0 218 -70q42 -53 42 -131q0 -23 -4 -49l-78 -561q-20 -156 -120.5 -230t-227.5 -74h-141q-178 0 -256 101l-72 -510h-160zM305 188q98 -70 254 -69h143q141 0 164 155l78 549q2 14 2 27q0 23 -7 41q-11 27 -38 36 t-46 12t-50 3h-150q-47 0 -131 -9t-116 -22z" />
<glyph unicode="&#xff;" horiz-adv-x="1044" d="M123 1065h164l209 -838h6l407 838h168l-760 -1499h-155l231 450zM367 1235l34 225h177l-35 -225h-176zM745 1235l35 225h178l-34 -225h-179z" />
<glyph unicode="&#x152;" horiz-adv-x="2179" d="M147 424l82 577q29 215 164 315.5t344 100.5h1479l-18 -135h-795l-66 -465h629l-18 -137h-629l-78 -545h795l-19 -135h-1478q-209 0 -315 104q-83 82 -83 233q0 41 6 87zM319 418q-5 -32 -4 -61q0 -88 42 -146q56 -76 184 -76h530l162 1147h-531q-129 0 -206.5 -76 t-96.5 -207z" />
<glyph unicode="&#x153;" horiz-adv-x="1916" d="M109 319l59 426q25 168 133.5 256.5t278.5 88.5h204q172 0 254 -113q119 113 344 113h95q178 0 272 -76q72 -58 72 -187q0 -39 -6 -86l-29 -213l-148 -24h-585l-27 -193q-4 -27 -4 -49q0 -64 30 -99q40 -48 154 -48h490l-10 -78q-78 -61 -224 -62h-278q-186 0 -273 111 q-111 -111 -282 -111h-205q-170 0 -254 88q-66 69 -66 189q0 31 5 67zM270 303q-3 -23 -3 -44q0 -58 25 -98q34 -54 118 -55h266q78 0 125 56.5t59 138.5l66 463q3 22 3 42q0 54 -24 95q-33 57 -110 57h-267q-84 0 -132 -53t-60 -141zM1069 627h569l23 149q3 22 3 42 q0 71 -36 100q-45 37 -153 36h-146q-117 0 -172 -49t-70 -151z" />
<glyph unicode="&#x178;" horiz-adv-x="1224" d="M133 1417h189l305 -657l491 657h174l-608 -792l-88 -625h-176l88 625zM446 1563l35 225h176l-34 -225h-177zM825 1563l35 225h178l-34 -225h-179z" />
<glyph unicode="&#x2c6;" horiz-adv-x="770" d="M193 1202l253 324h132l174 -324h-129l-117 213l-170 -213h-143z" />
<glyph unicode="&#x2dc;" horiz-adv-x="935" d="M242 1233q35 104 85 148t132 44q53 0 161.5 -28.5t161.5 -28.5q23 0 39.5 8t22.5 13.5t18 29t17 27.5l75 -16q-59 -193 -206 -193q-53 0 -163 28.5t-165 28.5q-20 0 -32.5 -2t-23 -12t-14.5 -13t-14 -23.5t-12 -26.5z" />
<glyph unicode="&#x2013;" horiz-adv-x="1187" d="M145 537l19 135h954l-18 -135h-955z" />
<glyph unicode="&#x2014;" horiz-adv-x="1626" d="M188 537l19 135h1323l-19 -135h-1323z" />
<glyph unicode="&#x2018;" horiz-adv-x="473" d="M270 1049l13 86l184 364h98l-86 -246l-10 -204h-199z" />
<glyph unicode="&#x2019;" horiz-adv-x="473" d="M162 1049l86 245l10 205h199l-13 -86l-184 -364h-98z" />
<glyph unicode="&#x201a;" horiz-adv-x="503" d="M16 -268l86 245l11 205h198l-12 -86l-184 -364h-99z" />
<glyph unicode="&#x201c;" horiz-adv-x="839" d="M279 1049l12 86l184 364h98l-86 -246l-10 -204h-198zM645 1049l12 86l185 364h98l-86 -246l-10 -204h-199z" />
<glyph unicode="&#x201d;" horiz-adv-x="839" d="M162 1049l86 245l10 205h199l-13 -86l-184 -364h-98zM528 1049l86 245l11 205h198l-12 -86l-184 -364h-99z" />
<glyph unicode="&#x201e;" horiz-adv-x="839" d="M25 -268l86 245l10 205h198l-12 -86l-184 -364h-98zM391 -268l86 245l10 205h199l-12 -86l-185 -364h-98z" />
<glyph unicode="&#x2022;" horiz-adv-x="745" d="M131 684q0 129 94 224.5t217 95.5q102 0 168 -68t66 -170q0 -129 -95.5 -224.5t-218.5 -95.5q-100 0 -165.5 68t-65.5 170z" />
<glyph unicode="&#x2026;" horiz-adv-x="1552" d="M94 0l29 207h201l-29 -207h-201zM618 0l29 207h201l-29 -207h-201zM1143 0l28 207h201l-29 -207h-200z" />
<glyph unicode="&#x2039;" horiz-adv-x="671" d="M141 506l17 106l458 342l68 -88l-348 -299l260 -340l-92 -82z" />
<glyph unicode="&#x203a;" horiz-adv-x="673" d="M6 227l359 340l-267 299l92 88l365 -342l-16 -106l-461 -361z" />
<glyph unicode="&#x20ac;" horiz-adv-x="1286" d="M78 477l18 135h191l26 183h-190l18 137h191l4 24q33 242 157.5 364t362.5 122h227q172 0 228 -53l-15 -99h-469q-160 0 -227.5 -86t-91.5 -256l-2 -16h567l-24 -137h-562l-26 -183h522l-29 -135h-512l-2 -8q-8 -59 -7 -108q0 -93 28 -149q43 -85 203 -85h469l-15 -98 q-70 -53 -239 -54h-228q-238 0 -328 122q-66 88 -66 239q0 58 9 125l2 16h-190z" />
<glyph unicode="&#x2122;" horiz-adv-x="1437" d="M256 1346l12 88h459l-12 -88h-178l-64 -449h-102l63 449h-178zM719 897l76 537h137l82 -299l166 299h129l-76 -537h-96l41 299l45 156h-11l-186 -334h-63l-91 334h-8l-4 -156l-41 -299h-100z" />
<glyph unicode="&#xe000;" horiz-adv-x="1065" d="M0 1065h1065v-1065h-1065v1065z" />
<glyph unicode="&#xfb01;" horiz-adv-x="1292" d="M125 913l16 123h226l32 221q18 137 124 205t272 68q262 0 352 -23l-17 -110h-389q-31 0 -61.5 -6.5t-70.5 -42t-48 -95.5l-31 -217h361l297 29l-150 -1065h-164l130 913h-490l-172 -1232l-174 -66l182 1298h-225z" />
<glyph unicode="&#xfb02;" horiz-adv-x="1292" d="M125 913l16 123h226l28 203q41 291 365 291q258 0 489 -31l-211 -1499h-164l197 1397h-366q-51 0 -90.5 -32t-49.5 -99l-33 -230h302l-19 -123h-299l-172 -1232l-178 -66l184 1298h-225z" />
<glyph unicode="&#xfb03;" horiz-adv-x="2138" d="M125 913l16 123h221l35 244q18 137 104.5 193.5t252.5 56.5q39 0 71.5 -5t67.5 -15.5t39 -10.5l-14 -102h-244h-15h-20q-4 0 -17.5 -2t-19.5 -9l-15 -15q-9 -9 -14.5 -23.5t-7.5 -34.5l-39 -277h303l-16 -123h-303l-174 -1235l-172 -61l182 1296h-221zM928 913l16 123 h221l35 244q18 137 104.5 193.5t251.5 56.5q39 0 72 -5t68 -15.5t39 -10.5l-15 -102h-243h-15h-20q-4 0 -17.5 -2t-19.5 -9l-15 -15q-9 -9 -14.5 -23.5t-7.5 -34.5l-39 -277h303l-16 -123h-303l-174 -1235l-172 -61l182 1296h-221zM1720 0l150 1065h164l-150 -1065h-164z M1903 1294l28 205h164l-29 -205h-163z" />
<glyph unicode="&#xfb04;" horiz-adv-x="2138" d="M125 913l16 123h221l35 244q18 137 104.5 193.5t252.5 56.5q39 0 71.5 -5t67.5 -15.5t39 -10.5l-14 -102h-244h-15h-20q-4 0 -17.5 -2t-19.5 -9l-15 -15q-9 -9 -14.5 -23.5t-7.5 -34.5l-39 -277h303l-16 -123h-303l-174 -1235l-172 -61l182 1296h-221zM928 913l16 123 h221l35 244q18 137 104.5 193.5t251.5 56.5q39 0 72 -5t68 -15.5t39 -10.5l-15 -102h-243h-15h-20q-4 0 -17.5 -2t-19.5 -9l-15 -15q-9 -9 -14.5 -23.5t-7.5 -34.5l-39 -277h303l-16 -123h-303l-174 -1235l-172 -61l182 1296h-221zM1720 0l211 1499h164l-211 -1499h-164z " />
</font>
</defs>
</svg>
